<?xml version="1.0" encoding="UTF-8"?>
<svg xmlns="http://www.w3.org/2000/svg" xmlns:xlink="http://www.w3.org/1999/xlink" width="1920" height="1080" viewBox="0 0 1920 1080">
<defs>
<g>
<g id="glyph-0-0">
<path d="M 3.085938 -4.1875 C 3.199219 -3.945312 3.285156 -3.683594 3.339844 -3.40625 C 3.394531 -3.128906 3.421875 -2.816406 3.421875 -2.476562 C 3.421875 -2.160156 3.394531 -1.855469 3.339844 -1.558594 C 3.28125 -1.261719 3.199219 -0.996094 3.082031 -0.761719 C 2.949219 -0.492188 2.78125 -0.28125 2.578125 -0.128906 C 2.375 0.0234375 2.132812 0.0976562 1.851562 0.0976562 C 1.566406 0.0976562 1.324219 0.0195312 1.121094 -0.132812 C 0.914062 -0.289062 0.75 -0.496094 0.625 -0.761719 C 0.503906 -1.007812 0.417969 -1.269531 0.367188 -1.542969 C 0.3125 -1.820312 0.285156 -2.128906 0.285156 -2.472656 C 0.285156 -2.824219 0.3125 -3.132812 0.359375 -3.398438 C 0.410156 -3.664062 0.496094 -3.929688 0.617188 -4.1875 C 0.742188 -4.445312 0.90625 -4.65625 1.117188 -4.8125 C 1.324219 -4.96875 1.570312 -5.046875 1.855469 -5.046875 C 2.140625 -5.046875 2.386719 -4.96875 2.589844 -4.8125 C 2.796875 -4.65625 2.960938 -4.445312 3.085938 -4.1875 M 2.746094 -2.707031 C 2.746094 -3.09375 2.722656 -3.417969 2.675781 -3.683594 C 2.628906 -3.953125 2.5625 -4.167969 2.480469 -4.332031 C 2.402344 -4.496094 2.308594 -4.617188 2.199219 -4.6875 C 2.089844 -4.761719 1.976562 -4.796875 1.851562 -4.796875 C 1.726562 -4.796875 1.609375 -4.761719 1.503906 -4.695312 C 1.402344 -4.625 1.308594 -4.503906 1.222656 -4.335938 C 1.144531 -4.171875 1.078125 -3.957031 1.035156 -3.691406 C 0.988281 -3.421875 0.960938 -3.09375 0.960938 -2.707031 L 2.746094 -2.707031 M 2.484375 -0.617188 C 2.566406 -0.792969 2.632812 -1.011719 2.675781 -1.277344 C 2.722656 -1.539062 2.746094 -1.882812 2.746094 -2.304688 L 2.746094 -2.417969 L 0.960938 -2.417969 L 0.960938 -2.304688 C 0.960938 -1.890625 0.984375 -1.546875 1.027344 -1.277344 C 1.074219 -1.003906 1.136719 -0.785156 1.214844 -0.617188 C 1.292969 -0.453125 1.382812 -0.335938 1.492188 -0.261719 C 1.601562 -0.1875 1.722656 -0.148438 1.851562 -0.148438 C 1.976562 -0.148438 2.09375 -0.1875 2.203125 -0.257812 C 2.3125 -0.332031 2.40625 -0.453125 2.484375 -0.617188 Z "/>
</g>
</g>
</defs>
<g fill="rgb(0%, 100%, 80%)" fill-opacity="1">
<use xlink:href="#glyph-0-0" x="30" y="26.112305"/>
</g>
</svg>
