<?xml version="1.0" encoding="UTF-8"?>
<svg xmlns="http://www.w3.org/2000/svg" xmlns:xlink="http://www.w3.org/1999/xlink" width="1920" height="1080" viewBox="0 0 1920 1080">
<defs>
<g>
<g id="glyph-0-0">
<path d="M 5.011719 0 L 2.929688 0 L 2.929688 -0.25 C 3.113281 -0.261719 3.265625 -0.285156 3.386719 -0.320312 C 3.507812 -0.355469 3.570312 -0.398438 3.570312 -0.453125 C 3.570312 -0.472656 3.566406 -0.5 3.5625 -0.527344 C 3.558594 -0.558594 3.550781 -0.585938 3.542969 -0.609375 L 3.125 -1.730469 L 1.371094 -1.730469 C 1.304688 -1.566406 1.25 -1.421875 1.210938 -1.300781 C 1.167969 -1.179688 1.132812 -1.066406 1.097656 -0.960938 C 1.066406 -0.863281 1.046875 -0.78125 1.035156 -0.714844 C 1.023438 -0.652344 1.015625 -0.601562 1.015625 -0.5625 C 1.015625 -0.464844 1.089844 -0.394531 1.238281 -0.34375 C 1.386719 -0.289062 1.554688 -0.261719 1.738281 -0.25 L 1.738281 0 L -0.144531 0 L -0.144531 -0.25 C -0.0820312 -0.253906 -0.0078125 -0.269531 0.0859375 -0.289062 C 0.175781 -0.3125 0.25 -0.34375 0.308594 -0.382812 C 0.40625 -0.445312 0.476562 -0.511719 0.527344 -0.582031 C 0.582031 -0.648438 0.632812 -0.746094 0.679688 -0.867188 C 0.933594 -1.496094 1.210938 -2.199219 1.511719 -2.984375 C 1.816406 -3.765625 2.085938 -4.464844 2.324219 -5.074219 L 2.605469 -5.074219 L 4.273438 -0.757812 C 4.308594 -0.667969 4.347656 -0.59375 4.394531 -0.535156 C 4.4375 -0.480469 4.5 -0.425781 4.582031 -0.371094 C 4.636719 -0.335938 4.707031 -0.308594 4.792969 -0.289062 C 4.878906 -0.265625 4.953125 -0.253906 5.011719 -0.25 L 5.011719 0 M 3 -2.046875 L 2.238281 -3.988281 L 1.492188 -2.046875 Z "/>
</g>
<g id="glyph-0-1">
<path d="M 2.917969 -3.03125 C 2.917969 -2.910156 2.886719 -2.804688 2.828125 -2.710938 C 2.769531 -2.617188 2.679688 -2.570312 2.558594 -2.570312 C 2.425781 -2.570312 2.324219 -2.605469 2.253906 -2.671875 C 2.1875 -2.742188 2.152344 -2.816406 2.152344 -2.898438 C 2.152344 -2.949219 2.15625 -2.996094 2.164062 -3.039062 C 2.171875 -3.082031 2.179688 -3.125 2.1875 -3.167969 C 2.074219 -3.167969 1.945312 -3.121094 1.796875 -3.03125 C 1.652344 -2.945312 1.523438 -2.816406 1.421875 -2.652344 L 1.421875 -0.628906 C 1.421875 -0.546875 1.4375 -0.476562 1.46875 -0.425781 C 1.5 -0.375 1.550781 -0.335938 1.617188 -0.308594 C 1.675781 -0.285156 1.753906 -0.269531 1.847656 -0.257812 C 1.9375 -0.246094 2.019531 -0.238281 2.085938 -0.234375 L 2.085938 0 L 0.253906 0 L 0.253906 -0.234375 C 0.308594 -0.238281 0.363281 -0.242188 0.421875 -0.246094 C 0.480469 -0.25 0.527344 -0.261719 0.570312 -0.273438 C 0.636719 -0.296875 0.6875 -0.332031 0.71875 -0.386719 C 0.75 -0.4375 0.765625 -0.507812 0.765625 -0.59375 L 0.765625 -2.738281 C 0.765625 -2.808594 0.75 -2.882812 0.714844 -2.953125 C 0.679688 -3.023438 0.632812 -3.078125 0.570312 -3.121094 C 0.527344 -3.148438 0.472656 -3.171875 0.414062 -3.183594 C 0.351562 -3.195312 0.285156 -3.203125 0.214844 -3.210938 L 0.214844 -3.441406 L 1.371094 -3.519531 L 1.421875 -3.46875 L 1.421875 -2.980469 L 1.4375 -2.980469 C 1.585938 -3.171875 1.746094 -3.316406 1.925781 -3.414062 C 2.105469 -3.511719 2.269531 -3.5625 2.414062 -3.5625 C 2.5625 -3.5625 2.683594 -3.515625 2.777344 -3.417969 C 2.871094 -3.320312 2.917969 -3.191406 2.917969 -3.03125 Z "/>
</g>
<g id="glyph-0-2">
<path d="M 4.0625 -0.0625 L 2.847656 0.015625 L 2.792969 -0.0351562 L 2.792969 -0.359375 L 2.765625 -0.367188 C 2.644531 -0.230469 2.492188 -0.117188 2.3125 -0.03125 C 2.132812 0.0546875 1.949219 0.0976562 1.757812 0.0976562 C 1.558594 0.0976562 1.371094 0.0546875 1.183594 -0.0351562 C 1 -0.121094 0.839844 -0.246094 0.703125 -0.40625 C 0.566406 -0.566406 0.457031 -0.761719 0.375 -0.992188 C 0.292969 -1.21875 0.253906 -1.46875 0.253906 -1.746094 C 0.253906 -1.996094 0.296875 -2.234375 0.382812 -2.460938 C 0.472656 -2.6875 0.589844 -2.886719 0.742188 -3.054688 C 0.886719 -3.210938 1.0625 -3.335938 1.269531 -3.429688 C 1.476562 -3.527344 1.691406 -3.574219 1.90625 -3.574219 C 2.066406 -3.574219 2.226562 -3.550781 2.382812 -3.511719 C 2.539062 -3.46875 2.671875 -3.417969 2.785156 -3.355469 L 2.785156 -4.566406 C 2.785156 -4.664062 2.769531 -4.753906 2.738281 -4.835938 C 2.703125 -4.917969 2.65625 -4.980469 2.597656 -5.023438 C 2.535156 -5.066406 2.445312 -5.097656 2.332031 -5.117188 C 2.222656 -5.140625 2.101562 -5.152344 1.972656 -5.164062 L 1.972656 -5.382812 L 3.394531 -5.460938 L 3.449219 -5.40625 L 3.449219 -0.71875 C 3.449219 -0.636719 3.464844 -0.566406 3.496094 -0.507812 C 3.527344 -0.453125 3.574219 -0.402344 3.636719 -0.363281 C 3.679688 -0.335938 3.746094 -0.316406 3.828125 -0.308594 C 3.914062 -0.304688 3.992188 -0.296875 4.0625 -0.296875 L 4.0625 -0.0625 M 2.785156 -0.671875 L 2.785156 -2.707031 C 2.765625 -2.769531 2.738281 -2.835938 2.695312 -2.90625 C 2.652344 -2.976562 2.597656 -3.042969 2.535156 -3.101562 C 2.46875 -3.160156 2.386719 -3.207031 2.296875 -3.246094 C 2.207031 -3.285156 2.097656 -3.304688 1.976562 -3.304688 C 1.835938 -3.304688 1.707031 -3.269531 1.585938 -3.195312 C 1.46875 -3.121094 1.363281 -3.019531 1.273438 -2.882812 C 1.1875 -2.75 1.117188 -2.582031 1.066406 -2.378906 C 1.015625 -2.175781 0.992188 -1.949219 0.992188 -1.703125 C 0.992188 -1.507812 1.011719 -1.328125 1.046875 -1.164062 C 1.085938 -1.003906 1.148438 -0.855469 1.238281 -0.714844 C 1.320312 -0.585938 1.425781 -0.476562 1.550781 -0.398438 C 1.679688 -0.320312 1.832031 -0.277344 2.007812 -0.277344 C 2.195312 -0.277344 2.351562 -0.320312 2.472656 -0.402344 C 2.597656 -0.484375 2.703125 -0.574219 2.785156 -0.671875 Z "/>
</g>
<g id="glyph-0-3">
<path d="M 3.980469 -0.0625 L 2.847656 0.015625 L 2.792969 -0.0351562 L 2.792969 -0.476562 L 2.773438 -0.476562 C 2.714844 -0.417969 2.652344 -0.355469 2.582031 -0.289062 C 2.511719 -0.21875 2.429688 -0.160156 2.339844 -0.105469 C 2.234375 -0.0429688 2.132812 0.0078125 2.03125 0.0390625 C 1.933594 0.0703125 1.792969 0.0898438 1.613281 0.0898438 C 1.304688 0.0898438 1.070312 -0.0117188 0.910156 -0.214844 C 0.75 -0.414062 0.671875 -0.707031 0.671875 -1.089844 L 0.671875 -2.75 C 0.671875 -2.835938 0.652344 -2.90625 0.621094 -2.964844 C 0.589844 -3.023438 0.542969 -3.070312 0.480469 -3.113281 C 0.4375 -3.140625 0.386719 -3.164062 0.320312 -3.175781 C 0.257812 -3.1875 0.191406 -3.199219 0.121094 -3.203125 L 0.121094 -3.433594 L 1.28125 -3.519531 L 1.332031 -3.46875 L 1.332031 -1.054688 C 1.332031 -0.804688 1.390625 -0.613281 1.503906 -0.488281 C 1.613281 -0.359375 1.75 -0.296875 1.90625 -0.296875 C 2.039062 -0.296875 2.152344 -0.316406 2.253906 -0.355469 C 2.355469 -0.394531 2.4375 -0.441406 2.507812 -0.496094 C 2.570312 -0.546875 2.625 -0.597656 2.675781 -0.652344 C 2.722656 -0.707031 2.761719 -0.761719 2.785156 -0.808594 L 2.785156 -2.777344 C 2.785156 -2.851562 2.769531 -2.921875 2.738281 -2.980469 C 2.703125 -3.042969 2.65625 -3.09375 2.597656 -3.136719 C 2.558594 -3.164062 2.492188 -3.179688 2.410156 -3.1875 C 2.328125 -3.191406 2.234375 -3.199219 2.128906 -3.203125 L 2.128906 -3.433594 L 3.394531 -3.519531 L 3.449219 -3.46875 L 3.449219 -0.710938 C 3.449219 -0.632812 3.464844 -0.5625 3.5 -0.507812 C 3.53125 -0.453125 3.578125 -0.402344 3.636719 -0.363281 C 3.679688 -0.335938 3.730469 -0.320312 3.789062 -0.3125 C 3.847656 -0.304688 3.910156 -0.296875 3.980469 -0.296875 Z "/>
</g>
<g id="glyph-0-4">
<path d="M 1.941406 0 L 0.261719 0 L 0.261719 -0.234375 C 0.316406 -0.238281 0.371094 -0.242188 0.429688 -0.246094 C 0.484375 -0.25 0.535156 -0.261719 0.578125 -0.273438 C 0.644531 -0.296875 0.691406 -0.332031 0.726562 -0.386719 C 0.757812 -0.4375 0.773438 -0.507812 0.773438 -0.59375 L 0.773438 -2.738281 C 0.773438 -2.8125 0.753906 -2.882812 0.722656 -2.941406 C 0.6875 -3.003906 0.640625 -3.058594 0.578125 -3.101562 C 0.535156 -3.128906 0.46875 -3.152344 0.382812 -3.171875 C 0.300781 -3.191406 0.222656 -3.203125 0.152344 -3.210938 L 0.152344 -3.441406 L 1.378906 -3.519531 L 1.429688 -3.46875 L 1.429688 -0.636719 C 1.429688 -0.550781 1.445312 -0.484375 1.476562 -0.429688 C 1.507812 -0.375 1.558594 -0.335938 1.625 -0.308594 C 1.675781 -0.289062 1.726562 -0.273438 1.773438 -0.257812 C 1.824219 -0.246094 1.878906 -0.238281 1.941406 -0.234375 L 1.941406 0 M 1.5 -4.890625 C 1.5 -4.757812 1.453125 -4.640625 1.367188 -4.539062 C 1.277344 -4.441406 1.167969 -4.390625 1.039062 -4.390625 C 0.921875 -4.390625 0.816406 -4.4375 0.726562 -4.535156 C 0.640625 -4.628906 0.597656 -4.738281 0.597656 -4.859375 C 0.597656 -4.988281 0.640625 -5.101562 0.726562 -5.199219 C 0.816406 -5.292969 0.921875 -5.34375 1.039062 -5.34375 C 1.175781 -5.34375 1.285156 -5.296875 1.371094 -5.207031 C 1.457031 -5.117188 1.5 -5.011719 1.5 -4.890625 Z "/>
</g>
<g id="glyph-0-5">
<path d="M 4.09375 0 L 2.394531 0 L 2.394531 -0.234375 C 2.449219 -0.238281 2.507812 -0.242188 2.574219 -0.246094 C 2.636719 -0.25 2.691406 -0.261719 2.734375 -0.273438 C 2.800781 -0.296875 2.847656 -0.332031 2.878906 -0.386719 C 2.910156 -0.4375 2.925781 -0.507812 2.925781 -0.59375 L 2.925781 -2.378906 C 2.925781 -2.628906 2.867188 -2.816406 2.753906 -2.953125 C 2.636719 -3.085938 2.492188 -3.152344 2.328125 -3.152344 C 2.203125 -3.152344 2.085938 -3.132812 1.984375 -3.09375 C 1.878906 -3.054688 1.789062 -3.007812 1.707031 -2.953125 C 1.628906 -2.898438 1.566406 -2.839844 1.523438 -2.777344 C 1.476562 -2.714844 1.441406 -2.664062 1.421875 -2.628906 L 1.421875 -0.628906 C 1.421875 -0.546875 1.4375 -0.480469 1.46875 -0.429688 C 1.503906 -0.378906 1.554688 -0.339844 1.617188 -0.308594 C 1.667969 -0.285156 1.722656 -0.269531 1.777344 -0.257812 C 1.835938 -0.246094 1.894531 -0.238281 1.957031 -0.234375 L 1.957031 0 L 0.253906 0 L 0.253906 -0.234375 C 0.308594 -0.238281 0.363281 -0.242188 0.421875 -0.246094 C 0.480469 -0.25 0.527344 -0.261719 0.570312 -0.273438 C 0.636719 -0.296875 0.6875 -0.332031 0.71875 -0.386719 C 0.75 -0.4375 0.765625 -0.507812 0.765625 -0.59375 L 0.765625 -2.738281 C 0.765625 -2.816406 0.75 -2.890625 0.714844 -2.957031 C 0.679688 -3.023438 0.632812 -3.078125 0.570312 -3.121094 C 0.527344 -3.148438 0.472656 -3.171875 0.414062 -3.183594 C 0.351562 -3.195312 0.285156 -3.203125 0.214844 -3.210938 L 0.214844 -3.441406 L 1.371094 -3.519531 L 1.421875 -3.46875 L 1.421875 -2.980469 L 1.4375 -2.980469 C 1.496094 -3.035156 1.566406 -3.105469 1.652344 -3.183594 C 1.734375 -3.261719 1.816406 -3.324219 1.890625 -3.375 C 1.976562 -3.429688 2.082031 -3.476562 2.199219 -3.515625 C 2.320312 -3.554688 2.457031 -3.574219 2.605469 -3.574219 C 2.941406 -3.574219 3.1875 -3.46875 3.347656 -3.261719 C 3.507812 -3.050781 3.589844 -2.777344 3.589844 -2.429688 L 3.589844 -0.621094 C 3.589844 -0.539062 3.605469 -0.472656 3.632812 -0.421875 C 3.660156 -0.371094 3.707031 -0.332031 3.777344 -0.304688 C 3.832031 -0.28125 3.882812 -0.261719 3.921875 -0.253906 C 3.964844 -0.246094 4.023438 -0.238281 4.09375 -0.234375 Z "/>
</g>
<g id="glyph-0-6">
<path d="M 3.648438 -1.773438 C 3.648438 -1.53125 3.609375 -1.289062 3.53125 -1.050781 C 3.453125 -0.816406 3.34375 -0.617188 3.199219 -0.453125 C 3.035156 -0.261719 2.847656 -0.125 2.632812 -0.03125 C 2.417969 0.0585938 2.179688 0.105469 1.914062 0.105469 C 1.691406 0.105469 1.480469 0.0625 1.28125 -0.0195312 C 1.082031 -0.101562 0.902344 -0.222656 0.75 -0.382812 C 0.59375 -0.542969 0.472656 -0.734375 0.382812 -0.960938 C 0.292969 -1.1875 0.246094 -1.441406 0.246094 -1.722656 C 0.246094 -2.269531 0.40625 -2.710938 0.722656 -3.058594 C 1.039062 -3.402344 1.453125 -3.574219 1.964844 -3.574219 C 2.453125 -3.574219 2.855469 -3.410156 3.171875 -3.085938 C 3.488281 -2.757812 3.648438 -2.320312 3.648438 -1.773438 M 2.917969 -1.765625 C 2.917969 -1.941406 2.898438 -2.128906 2.863281 -2.324219 C 2.828125 -2.523438 2.773438 -2.6875 2.703125 -2.824219 C 2.628906 -2.96875 2.53125 -3.085938 2.40625 -3.175781 C 2.285156 -3.265625 2.136719 -3.308594 1.960938 -3.308594 C 1.777344 -3.308594 1.621094 -3.261719 1.496094 -3.175781 C 1.367188 -3.085938 1.261719 -2.960938 1.183594 -2.808594 C 1.105469 -2.664062 1.054688 -2.5 1.023438 -2.316406 C 0.992188 -2.132812 0.976562 -1.957031 0.976562 -1.785156 C 0.976562 -1.558594 0.996094 -1.351562 1.03125 -1.160156 C 1.066406 -0.96875 1.125 -0.796875 1.207031 -0.644531 C 1.285156 -0.496094 1.386719 -0.375 1.507812 -0.289062 C 1.628906 -0.207031 1.78125 -0.164062 1.960938 -0.164062 C 2.253906 -0.164062 2.488281 -0.304688 2.660156 -0.589844 C 2.832031 -0.875 2.917969 -1.265625 2.917969 -1.765625 Z "/>
</g>
</g>
</defs>
<g fill="rgb(91.372549%, 27.058824%, 37.647059%)" fill-opacity="1">
<use xlink:href="#glyph-0-0" x="30" y="26.623047"/>
<use xlink:href="#glyph-0-1" x="35" y="26.623047"/>
<use xlink:href="#glyph-0-2" x="38" y="26.623047"/>
<use xlink:href="#glyph-0-3" x="42" y="26.623047"/>
<use xlink:href="#glyph-0-4" x="46" y="26.623047"/>
<use xlink:href="#glyph-0-5" x="48" y="26.623047"/>
<use xlink:href="#glyph-0-6" x="52" y="26.623047"/>
</g>
</svg>
