<?xml version="1.0" encoding="UTF-8"?>
<svg xmlns="http://www.w3.org/2000/svg" xmlns:xlink="http://www.w3.org/1999/xlink" width="1920" height="1080" viewBox="0 0 1920 1080">
<defs>
<g>
<g id="glyph-0-0">
<path d="M 3.675781 -0.0585938 L 2.628906 0.0117188 L 2.578125 -0.03125 L 2.578125 -0.4375 L 2.558594 -0.4375 C 2.507812 -0.386719 2.449219 -0.328125 2.382812 -0.265625 C 2.316406 -0.203125 2.242188 -0.148438 2.160156 -0.0976562 C 2.0625 -0.0390625 1.96875 0.00390625 1.875 0.0351562 C 1.785156 0.0664062 1.65625 0.0820312 1.488281 0.0820312 C 1.207031 0.0820312 0.988281 -0.0117188 0.839844 -0.195312 C 0.691406 -0.382812 0.617188 -0.652344 0.617188 -1.003906 L 0.617188 -2.539062 C 0.617188 -2.617188 0.605469 -2.683594 0.574219 -2.734375 C 0.542969 -2.789062 0.5 -2.835938 0.445312 -2.875 C 0.40625 -2.902344 0.355469 -2.917969 0.296875 -2.929688 C 0.238281 -2.941406 0.175781 -2.953125 0.109375 -2.957031 L 0.109375 -3.171875 L 1.179688 -3.25 L 1.230469 -3.203125 L 1.230469 -0.972656 C 1.230469 -0.742188 1.28125 -0.566406 1.386719 -0.449219 C 1.492188 -0.332031 1.617188 -0.273438 1.761719 -0.273438 C 1.878906 -0.273438 1.988281 -0.292969 2.078125 -0.328125 C 2.171875 -0.367188 2.25 -0.410156 2.3125 -0.457031 C 2.375 -0.503906 2.425781 -0.550781 2.46875 -0.601562 C 2.511719 -0.65625 2.546875 -0.703125 2.570312 -0.746094 L 2.570312 -2.5625 C 2.570312 -2.632812 2.554688 -2.695312 2.527344 -2.753906 C 2.496094 -2.808594 2.453125 -2.855469 2.398438 -2.894531 C 2.359375 -2.921875 2.300781 -2.9375 2.226562 -2.941406 C 2.148438 -2.945312 2.0625 -2.953125 1.964844 -2.957031 L 1.964844 -3.171875 L 3.132812 -3.25 L 3.183594 -3.203125 L 3.183594 -0.65625 C 3.183594 -0.582031 3.199219 -0.519531 3.230469 -0.46875 C 3.257812 -0.417969 3.300781 -0.371094 3.355469 -0.335938 C 3.394531 -0.3125 3.441406 -0.296875 3.496094 -0.289062 C 3.550781 -0.28125 3.609375 -0.277344 3.675781 -0.273438 Z "/>
</g>
<g id="glyph-0-1">
<path d="M 1.738281 0 L 0.171875 0 L 0.171875 -0.214844 C 0.222656 -0.21875 0.277344 -0.222656 0.332031 -0.230469 C 0.386719 -0.234375 0.433594 -0.242188 0.472656 -0.253906 C 0.53125 -0.273438 0.578125 -0.308594 0.609375 -0.355469 C 0.640625 -0.40625 0.652344 -0.46875 0.652344 -0.546875 L 0.652344 -4.265625 C 0.652344 -4.34375 0.636719 -4.417969 0.605469 -4.488281 C 0.570312 -4.554688 0.527344 -4.609375 0.472656 -4.648438 C 0.433594 -4.675781 0.359375 -4.699219 0.257812 -4.71875 C 0.152344 -4.742188 0.0703125 -4.753906 0.0078125 -4.757812 L 0.0078125 -4.96875 L 1.214844 -5.039062 L 1.257812 -4.992188 L 1.257812 -0.585938 C 1.257812 -0.511719 1.273438 -0.449219 1.300781 -0.398438 C 1.332031 -0.351562 1.375 -0.3125 1.4375 -0.285156 C 1.488281 -0.265625 1.535156 -0.25 1.582031 -0.238281 C 1.628906 -0.226562 1.679688 -0.21875 1.738281 -0.214844 Z "/>
</g>
</g>
</defs>
<g fill="rgb(0%, 100%, 80%)" fill-opacity="1">
<use xlink:href="#glyph-0-0" x="30" y="26.112305"/>
<use xlink:href="#glyph-0-1" x="34" y="26.112305"/>
</g>
</svg>
