<?xml version="1.0" encoding="UTF-8"?>
<svg xmlns="http://www.w3.org/2000/svg" xmlns:xlink="http://www.w3.org/1999/xlink" width="1920" height="1080" viewBox="0 0 1920 1080">
<defs>
<g>
<g id="glyph-0-0">
<path d="M 9.671875 0 L 6.570312 0 C 6.035156 -0.820312 5.589844 -1.472656 5.234375 -1.960938 C 4.882812 -2.445312 4.441406 -3.007812 3.914062 -3.644531 L 3.601562 -3.644531 L 3.601562 -1.191406 C 3.601562 -1.054688 3.625 -0.9375 3.675781 -0.84375 C 3.726562 -0.75 3.828125 -0.667969 3.96875 -0.605469 C 4.042969 -0.574219 4.15625 -0.542969 4.308594 -0.511719 C 4.464844 -0.476562 4.59375 -0.457031 4.707031 -0.445312 L 4.707031 0 L 0.394531 0 L 0.394531 -0.445312 C 0.503906 -0.457031 0.648438 -0.472656 0.828125 -0.492188 C 1.007812 -0.511719 1.136719 -0.539062 1.214844 -0.570312 C 1.359375 -0.628906 1.453125 -0.707031 1.503906 -0.800781 C 1.554688 -0.894531 1.578125 -1.011719 1.578125 -1.15625 L 1.578125 -6.859375 C 1.578125 -6.996094 1.558594 -7.109375 1.515625 -7.199219 C 1.472656 -7.292969 1.371094 -7.371094 1.214844 -7.441406 C 1.09375 -7.488281 0.949219 -7.53125 0.785156 -7.566406 C 0.617188 -7.597656 0.488281 -7.625 0.394531 -7.640625 L 0.394531 -8.082031 L 4.925781 -8.082031 C 5.941406 -8.082031 6.710938 -7.925781 7.238281 -7.609375 C 7.761719 -7.289062 8.027344 -6.8125 8.027344 -6.167969 C 8.027344 -5.605469 7.863281 -5.148438 7.539062 -4.804688 C 7.214844 -4.460938 6.71875 -4.191406 6.054688 -4 C 6.3125 -3.664062 6.613281 -3.277344 6.957031 -2.835938 C 7.300781 -2.394531 7.660156 -1.945312 8.03125 -1.488281 C 8.148438 -1.339844 8.308594 -1.15625 8.511719 -0.941406 C 8.714844 -0.726562 8.894531 -0.597656 9.050781 -0.546875 C 9.140625 -0.519531 9.25 -0.496094 9.386719 -0.476562 C 9.519531 -0.460938 9.617188 -0.449219 9.671875 -0.445312 L 9.671875 0 M 5.792969 -6.011719 C 5.792969 -6.550781 5.640625 -6.941406 5.339844 -7.191406 C 5.039062 -7.441406 4.609375 -7.566406 4.050781 -7.566406 L 3.601562 -7.566406 L 3.601562 -4.179688 L 4.03125 -4.179688 C 4.589844 -4.179688 5.023438 -4.328125 5.332031 -4.621094 C 5.640625 -4.914062 5.792969 -5.375 5.792969 -6.011719 Z "/>
</g>
<g id="glyph-0-1">
<path d="M 7.269531 -2.773438 C 7.269531 -1.972656 7 -1.285156 6.464844 -0.710938 C 5.933594 -0.136719 5.253906 0.148438 4.4375 0.148438 C 4.070312 0.148438 3.777344 0.109375 3.546875 0.0351562 C 3.320312 -0.0351562 3.132812 -0.128906 2.984375 -0.234375 L 2.9375 -0.234375 L 2.9375 1.367188 C 2.9375 1.5 2.96875 1.617188 3.027344 1.714844 C 3.085938 1.8125 3.167969 1.886719 3.277344 1.929688 C 3.378906 1.972656 3.523438 2.011719 3.710938 2.046875 C 3.898438 2.078125 4.054688 2.101562 4.179688 2.109375 L 4.179688 2.53125 L 0.0625 2.53125 L 0.0625 2.109375 C 0.15625 2.101562 0.277344 2.085938 0.421875 2.066406 C 0.566406 2.042969 0.675781 2.023438 0.746094 2 C 0.867188 1.957031 0.949219 1.886719 0.992188 1.785156 C 1.039062 1.683594 1.058594 1.570312 1.058594 1.441406 L 1.058594 -4.386719 C 1.046875 -4.511719 1.019531 -4.621094 0.972656 -4.71875 C 0.921875 -4.8125 0.847656 -4.894531 0.746094 -4.96875 C 0.671875 -5.015625 0.570312 -5.058594 0.445312 -5.089844 C 0.320312 -5.121094 0.195312 -5.144531 0.0742188 -5.15625 L 0.0742188 -5.570312 L 2.855469 -5.71875 L 2.9375 -5.644531 L 2.9375 -5.011719 L 2.984375 -5 C 3.234375 -5.257812 3.511719 -5.453125 3.820312 -5.59375 C 4.125 -5.734375 4.425781 -5.804688 4.726562 -5.804688 C 5.511719 -5.804688 6.132812 -5.527344 6.585938 -4.96875 C 7.042969 -4.414062 7.269531 -3.683594 7.269531 -2.773438 M 5.222656 -2.75 C 5.222656 -3.035156 5.203125 -3.308594 5.160156 -3.570312 C 5.121094 -3.828125 5.046875 -4.0625 4.941406 -4.265625 C 4.835938 -4.472656 4.703125 -4.636719 4.535156 -4.757812 C 4.363281 -4.878906 4.160156 -4.9375 3.917969 -4.9375 C 3.671875 -4.9375 3.472656 -4.894531 3.324219 -4.8125 C 3.179688 -4.726562 3.050781 -4.613281 2.9375 -4.476562 L 2.9375 -1.246094 C 2.960938 -1.171875 3.003906 -1.074219 3.070312 -0.953125 C 3.132812 -0.835938 3.199219 -0.738281 3.261719 -0.667969 C 3.359375 -0.5625 3.464844 -0.488281 3.585938 -0.4375 C 3.707031 -0.390625 3.839844 -0.363281 3.984375 -0.363281 C 4.359375 -0.363281 4.660156 -0.566406 4.886719 -0.972656 C 5.109375 -1.375 5.222656 -1.96875 5.222656 -2.75 Z "/>
</g>
<g id="glyph-0-2">
<path d="M 3.929688 0 L 0.332031 0 L 0.332031 -0.414062 C 0.429688 -0.421875 0.527344 -0.433594 0.621094 -0.445312 C 0.714844 -0.457031 0.796875 -0.476562 0.867188 -0.5 C 0.988281 -0.546875 1.074219 -0.613281 1.121094 -0.699219 C 1.171875 -0.785156 1.195312 -0.894531 1.195312 -1.035156 L 1.195312 -4.351562 C 1.195312 -4.484375 1.164062 -4.601562 1.105469 -4.703125 C 1.042969 -4.804688 0.96875 -4.882812 0.878906 -4.945312 C 0.808594 -4.992188 0.707031 -5.035156 0.566406 -5.074219 C 0.429688 -5.117188 0.300781 -5.144531 0.1875 -5.15625 L 0.1875 -5.570312 L 2.980469 -5.71875 L 3.066406 -5.632812 L 3.066406 -1.109375 C 3.066406 -0.976562 3.09375 -0.863281 3.148438 -0.773438 C 3.207031 -0.679688 3.289062 -0.609375 3.394531 -0.5625 C 3.472656 -0.53125 3.554688 -0.5 3.644531 -0.472656 C 3.738281 -0.445312 3.832031 -0.425781 3.929688 -0.414062 L 3.929688 0 M 3.097656 -7.769531 C 3.097656 -7.480469 2.988281 -7.234375 2.765625 -7.03125 C 2.542969 -6.828125 2.28125 -6.726562 1.976562 -6.726562 C 1.667969 -6.726562 1.402344 -6.828125 1.183594 -7.03125 C 0.960938 -7.234375 0.847656 -7.480469 0.847656 -7.769531 C 0.847656 -8.058594 0.960938 -8.304688 1.183594 -8.511719 C 1.402344 -8.714844 1.667969 -8.816406 1.976562 -8.820312 C 2.285156 -8.816406 2.546875 -8.714844 2.769531 -8.511719 C 2.988281 -8.304688 3.097656 -8.058594 3.097656 -7.769531 Z "/>
</g>
</g>
</defs>
<g fill="rgb(0%, 0%, 0%)" fill-opacity="1">
<use xlink:href="#glyph-0-0" x="30" y="30.697266"/>
<use xlink:href="#glyph-0-1" x="39" y="30.697266"/>
<use xlink:href="#glyph-0-2" x="47" y="30.697266"/>
</g>
</svg>
