<?xml version="1.0" encoding="UTF-8"?>
<svg xmlns="http://www.w3.org/2000/svg" xmlns:xlink="http://www.w3.org/1999/xlink" width="1920" height="1080" viewBox="0 0 1920 1080">
<defs>
<g>
<g id="glyph-0-0">
<path d="M 6.910156 0 L 4.695312 0 C 4.3125 -0.585938 3.992188 -1.050781 3.738281 -1.398438 C 3.488281 -1.746094 3.171875 -2.148438 2.792969 -2.605469 L 2.570312 -2.605469 L 2.570312 -0.851562 C 2.570312 -0.753906 2.589844 -0.671875 2.625 -0.601562 C 2.664062 -0.535156 2.734375 -0.476562 2.835938 -0.429688 C 2.886719 -0.410156 2.96875 -0.386719 3.078125 -0.363281 C 3.1875 -0.339844 3.28125 -0.324219 3.359375 -0.316406 L 3.359375 0 L 0.28125 0 L 0.28125 -0.316406 C 0.359375 -0.324219 0.464844 -0.335938 0.59375 -0.351562 C 0.722656 -0.367188 0.8125 -0.386719 0.867188 -0.40625 C 0.96875 -0.449219 1.039062 -0.503906 1.074219 -0.570312 C 1.109375 -0.636719 1.128906 -0.722656 1.128906 -0.824219 L 1.128906 -4.898438 C 1.128906 -4.996094 1.113281 -5.078125 1.082031 -5.144531 C 1.050781 -5.207031 0.980469 -5.265625 0.867188 -5.3125 C 0.78125 -5.347656 0.675781 -5.378906 0.558594 -5.402344 C 0.441406 -5.429688 0.347656 -5.445312 0.28125 -5.457031 L 0.28125 -5.773438 L 3.519531 -5.773438 C 4.242188 -5.773438 4.792969 -5.660156 5.167969 -5.433594 C 5.546875 -5.207031 5.734375 -4.863281 5.734375 -4.40625 C 5.734375 -4.003906 5.617188 -3.675781 5.386719 -3.433594 C 5.152344 -3.1875 4.800781 -2.996094 4.324219 -2.855469 C 4.511719 -2.617188 4.726562 -2.339844 4.96875 -2.027344 C 5.214844 -1.710938 5.472656 -1.390625 5.738281 -1.0625 C 5.820312 -0.957031 5.9375 -0.828125 6.082031 -0.671875 C 6.226562 -0.519531 6.355469 -0.425781 6.464844 -0.390625 C 6.527344 -0.371094 6.605469 -0.355469 6.703125 -0.339844 C 6.800781 -0.328125 6.867188 -0.320312 6.910156 -0.316406 L 6.910156 0 M 4.136719 -4.292969 C 4.136719 -4.679688 4.03125 -4.960938 3.816406 -5.136719 C 3.597656 -5.316406 3.292969 -5.402344 2.894531 -5.402344 L 2.570312 -5.402344 L 2.570312 -2.988281 L 2.878906 -2.988281 C 3.28125 -2.988281 3.589844 -3.089844 3.808594 -3.300781 C 4.027344 -3.507812 4.136719 -3.839844 4.136719 -4.292969 Z "/>
</g>
<g id="glyph-0-1">
<path d="M 5.191406 -1.980469 C 5.191406 -1.410156 5 -0.917969 4.617188 -0.507812 C 4.238281 -0.0976562 3.753906 0.105469 3.167969 0.105469 C 2.910156 0.105469 2.695312 0.078125 2.535156 0.0273438 C 2.371094 -0.0273438 2.238281 -0.0898438 2.132812 -0.167969 L 2.097656 -0.167969 L 2.097656 0.976562 C 2.097656 1.070312 2.121094 1.152344 2.164062 1.226562 C 2.203125 1.296875 2.265625 1.347656 2.339844 1.378906 C 2.414062 1.410156 2.515625 1.4375 2.652344 1.460938 C 2.785156 1.484375 2.898438 1.5 2.988281 1.503906 L 2.988281 1.804688 L 0.0429688 1.804688 L 0.0429688 1.503906 C 0.113281 1.5 0.199219 1.488281 0.300781 1.476562 C 0.402344 1.460938 0.480469 1.445312 0.53125 1.429688 C 0.621094 1.398438 0.679688 1.347656 0.710938 1.277344 C 0.742188 1.203125 0.757812 1.121094 0.757812 1.03125 L 0.757812 -3.132812 C 0.75 -3.222656 0.726562 -3.300781 0.695312 -3.367188 C 0.660156 -3.4375 0.605469 -3.496094 0.53125 -3.546875 C 0.480469 -3.582031 0.40625 -3.613281 0.316406 -3.636719 C 0.226562 -3.660156 0.140625 -3.675781 0.0546875 -3.683594 L 0.0546875 -3.980469 L 2.039062 -4.085938 L 2.097656 -4.03125 L 2.097656 -3.582031 L 2.132812 -3.574219 C 2.3125 -3.753906 2.507812 -3.894531 2.726562 -3.996094 C 2.945312 -4.097656 3.160156 -4.144531 3.375 -4.144531 C 3.9375 -4.144531 4.378906 -3.949219 4.703125 -3.550781 C 5.03125 -3.152344 5.191406 -2.628906 5.191406 -1.980469 M 3.730469 -1.964844 C 3.730469 -2.167969 3.714844 -2.363281 3.6875 -2.550781 C 3.65625 -2.734375 3.605469 -2.902344 3.527344 -3.046875 C 3.457031 -3.195312 3.359375 -3.3125 3.238281 -3.398438 C 3.117188 -3.484375 2.972656 -3.527344 2.796875 -3.527344 C 2.621094 -3.527344 2.480469 -3.496094 2.375 -3.4375 C 2.269531 -3.375 2.179688 -3.296875 2.097656 -3.199219 L 2.097656 -0.890625 C 2.117188 -0.835938 2.148438 -0.765625 2.191406 -0.679688 C 2.238281 -0.597656 2.285156 -0.527344 2.332031 -0.476562 C 2.398438 -0.402344 2.476562 -0.347656 2.5625 -0.3125 C 2.648438 -0.277344 2.742188 -0.261719 2.847656 -0.261719 C 3.113281 -0.261719 3.328125 -0.40625 3.488281 -0.695312 C 3.652344 -0.984375 3.730469 -1.40625 3.730469 -1.964844 Z "/>
</g>
<g id="glyph-0-2">
<path d="M 2.808594 0 L 0.234375 0 L 0.234375 -0.296875 C 0.304688 -0.300781 0.375 -0.308594 0.445312 -0.316406 C 0.511719 -0.324219 0.570312 -0.339844 0.617188 -0.359375 C 0.707031 -0.390625 0.765625 -0.4375 0.800781 -0.5 C 0.835938 -0.558594 0.855469 -0.640625 0.855469 -0.742188 L 0.855469 -3.109375 C 0.855469 -3.203125 0.832031 -3.285156 0.789062 -3.359375 C 0.746094 -3.429688 0.691406 -3.488281 0.625 -3.53125 C 0.578125 -3.5625 0.503906 -3.59375 0.40625 -3.625 C 0.304688 -3.65625 0.214844 -3.675781 0.132812 -3.683594 L 0.132812 -3.980469 L 2.128906 -4.085938 L 2.1875 -4.023438 L 2.1875 -0.792969 C 2.1875 -0.699219 2.210938 -0.617188 2.25 -0.550781 C 2.289062 -0.484375 2.347656 -0.433594 2.425781 -0.402344 C 2.480469 -0.378906 2.539062 -0.355469 2.605469 -0.335938 C 2.667969 -0.320312 2.738281 -0.304688 2.808594 -0.296875 L 2.808594 0 M 2.214844 -5.550781 C 2.214844 -5.34375 2.132812 -5.167969 1.976562 -5.023438 C 1.816406 -4.878906 1.628906 -4.804688 1.410156 -4.804688 C 1.191406 -4.804688 1.003906 -4.878906 0.84375 -5.023438 C 0.6875 -5.167969 0.605469 -5.34375 0.605469 -5.550781 C 0.605469 -5.757812 0.6875 -5.933594 0.84375 -6.078125 C 1.003906 -6.226562 1.191406 -6.296875 1.410156 -6.296875 C 1.632812 -6.296875 1.820312 -6.226562 1.976562 -6.078125 C 2.136719 -5.933594 2.214844 -5.757812 2.214844 -5.550781 Z "/>
</g>
</g>
</defs>
<g fill="rgb(0%, 0%, 0%)" fill-opacity="1">
<use xlink:href="#glyph-0-0" x="30" y="27.641602"/>
<use xlink:href="#glyph-0-1" x="37" y="27.641602"/>
<use xlink:href="#glyph-0-2" x="42" y="27.641602"/>
</g>
</svg>
