<?xml version="1.0" encoding="UTF-8"?>
<svg xmlns="http://www.w3.org/2000/svg" xmlns:xlink="http://www.w3.org/1999/xlink" width="1920" height="1080" viewBox="0 0 1920 1080">
<defs>
<g>
<g id="glyph-0-0">
<path d="M 2.335938 0 L 0.257812 0 L 0.257812 -0.230469 C 0.316406 -0.234375 0.398438 -0.242188 0.511719 -0.25 C 0.621094 -0.257812 0.699219 -0.273438 0.746094 -0.289062 C 0.816406 -0.316406 0.867188 -0.355469 0.902344 -0.40625 C 0.933594 -0.453125 0.949219 -0.523438 0.949219 -0.609375 L 0.949219 -3.953125 C 0.949219 -4.03125 0.9375 -4.09375 0.914062 -4.144531 C 0.890625 -4.195312 0.835938 -4.238281 0.746094 -4.273438 C 0.679688 -4.300781 0.597656 -4.324219 0.5 -4.347656 C 0.402344 -4.371094 0.320312 -4.382812 0.257812 -4.386719 L 0.257812 -4.617188 L 2.335938 -4.617188 L 2.335938 -4.386719 C 2.269531 -4.386719 2.191406 -4.378906 2.097656 -4.363281 C 2.003906 -4.347656 1.921875 -4.332031 1.851562 -4.308594 C 1.769531 -4.285156 1.714844 -4.242188 1.6875 -4.183594 C 1.65625 -4.125 1.644531 -4.058594 1.644531 -3.988281 L 1.644531 -0.644531 C 1.644531 -0.574219 1.660156 -0.507812 1.691406 -0.453125 C 1.722656 -0.398438 1.777344 -0.355469 1.851562 -0.320312 C 1.898438 -0.304688 1.972656 -0.285156 2.074219 -0.265625 C 2.179688 -0.246094 2.265625 -0.234375 2.335938 -0.230469 Z "/>
</g>
<g id="glyph-0-1">
<path d="M 5.058594 -4.386719 C 4.996094 -4.386719 4.90625 -4.367188 4.777344 -4.335938 C 4.652344 -4.304688 4.5625 -4.269531 4.507812 -4.234375 C 4.429688 -4.179688 4.378906 -4.078125 4.351562 -3.921875 C 4.324219 -3.769531 4.308594 -3.574219 4.308594 -3.335938 L 4.308594 0.046875 L 4.027344 0.046875 L 1.226562 -3.734375 L 1.226562 -1.351562 C 1.226562 -1.085938 1.242188 -0.878906 1.277344 -0.734375 C 1.3125 -0.59375 1.363281 -0.492188 1.433594 -0.429688 C 1.480469 -0.382812 1.585938 -0.335938 1.742188 -0.296875 C 1.898438 -0.253906 2 -0.234375 2.050781 -0.230469 L 2.050781 0 L 0.15625 0 L 0.15625 -0.230469 C 0.214844 -0.234375 0.3125 -0.257812 0.453125 -0.292969 C 0.589844 -0.332031 0.679688 -0.367188 0.710938 -0.398438 C 0.789062 -0.457031 0.839844 -0.550781 0.867188 -0.675781 C 0.898438 -0.800781 0.910156 -1.011719 0.910156 -1.316406 L 0.910156 -3.589844 C 0.910156 -3.691406 0.894531 -3.789062 0.859375 -3.890625 C 0.824219 -3.988281 0.777344 -4.066406 0.71875 -4.121094 C 0.640625 -4.191406 0.535156 -4.253906 0.402344 -4.304688 C 0.269531 -4.355469 0.160156 -4.382812 0.078125 -4.386719 L 0.078125 -4.617188 L 1.398438 -4.617188 L 3.992188 -1.097656 L 3.992188 -3.292969 C 3.992188 -3.5625 3.976562 -3.769531 3.941406 -3.914062 C 3.90625 -4.058594 3.855469 -4.15625 3.792969 -4.203125 C 3.730469 -4.242188 3.632812 -4.285156 3.496094 -4.324219 C 3.355469 -4.363281 3.25 -4.382812 3.179688 -4.386719 L 3.179688 -4.617188 L 5.058594 -4.617188 Z "/>
</g>
<g id="glyph-0-2">
<path d="M 4.074219 -3.367188 L 3.851562 -3.367188 C 3.832031 -3.445312 3.796875 -3.535156 3.746094 -3.644531 C 3.695312 -3.75 3.636719 -3.851562 3.574219 -3.949219 C 3.507812 -4.046875 3.4375 -4.136719 3.359375 -4.210938 C 3.28125 -4.285156 3.207031 -4.328125 3.136719 -4.339844 C 3.070312 -4.347656 2.984375 -4.355469 2.882812 -4.359375 C 2.78125 -4.363281 2.683594 -4.367188 2.597656 -4.367188 L 2.410156 -4.367188 L 2.410156 -0.671875 C 2.410156 -0.597656 2.425781 -0.535156 2.453125 -0.472656 C 2.484375 -0.414062 2.539062 -0.367188 2.613281 -0.335938 C 2.652344 -0.320312 2.734375 -0.300781 2.859375 -0.273438 C 2.984375 -0.246094 3.082031 -0.234375 3.152344 -0.230469 L 3.152344 0 L 0.96875 0 L 0.96875 -0.230469 C 1.03125 -0.234375 1.125 -0.242188 1.25 -0.257812 C 1.375 -0.269531 1.460938 -0.285156 1.507812 -0.304688 C 1.578125 -0.335938 1.632812 -0.375 1.664062 -0.429688 C 1.699219 -0.480469 1.714844 -0.550781 1.714844 -0.640625 L 1.714844 -4.367188 L 1.527344 -4.367188 C 1.460938 -4.367188 1.375 -4.363281 1.277344 -4.359375 C 1.175781 -4.355469 1.082031 -4.351562 0.988281 -4.339844 C 0.917969 -4.332031 0.84375 -4.289062 0.765625 -4.210938 C 0.691406 -4.132812 0.617188 -4.046875 0.554688 -3.949219 C 0.488281 -3.851562 0.429688 -3.746094 0.378906 -3.636719 C 0.332031 -3.527344 0.296875 -3.4375 0.277344 -3.367188 L 0.046875 -3.367188 L 0.046875 -4.617188 L 4.074219 -4.617188 Z "/>
</g>
</g>
</defs>
<g fill="rgb(0%, 100%, 80%)" fill-opacity="1">
<use xlink:href="#glyph-0-0" x="30" y="26.112305"/>
<use xlink:href="#glyph-0-1" x="33" y="26.112305"/>
<use xlink:href="#glyph-0-0" x="38" y="26.112305"/>
<use xlink:href="#glyph-0-2" x="41" y="26.112305"/>
</g>
</svg>
