<?xml version="1.0" encoding="UTF-8"?>
<svg xmlns="http://www.w3.org/2000/svg" xmlns:xlink="http://www.w3.org/1999/xlink" width="1920" height="1080" viewBox="0 0 1920 1080">
<defs>
<g>
<g id="glyph-0-0">
<path d="M 4.222656 -3.773438 C 4.394531 -3.570312 4.527344 -3.335938 4.621094 -3.066406 C 4.714844 -2.800781 4.761719 -2.492188 4.761719 -2.148438 C 4.761719 -1.808594 4.707031 -1.5 4.59375 -1.222656 C 4.480469 -0.941406 4.332031 -0.703125 4.144531 -0.507812 C 3.953125 -0.308594 3.734375 -0.15625 3.5 -0.046875 C 3.261719 0.0585938 3.007812 0.113281 2.742188 0.113281 C 2.484375 0.113281 2.273438 0.0820312 2.109375 0.0273438 C 1.945312 -0.03125 1.808594 -0.101562 1.707031 -0.179688 L 1.671875 -0.179688 L 1.671875 1.109375 C 1.671875 1.214844 1.691406 1.300781 1.730469 1.371094 C 1.773438 1.441406 1.835938 1.492188 1.917969 1.523438 C 1.988281 1.550781 2.085938 1.574219 2.214844 1.597656 C 2.34375 1.625 2.449219 1.636719 2.535156 1.640625 L 2.535156 1.925781 L 0.144531 1.925781 L 0.144531 1.640625 C 0.234375 1.636719 0.320312 1.628906 0.402344 1.617188 C 0.488281 1.609375 0.5625 1.597656 0.628906 1.574219 C 0.714844 1.546875 0.777344 1.496094 0.8125 1.421875 C 0.847656 1.351562 0.863281 1.265625 0.863281 1.167969 L 0.863281 -3.386719 C 0.863281 -3.472656 0.84375 -3.554688 0.796875 -3.636719 C 0.753906 -3.71875 0.699219 -3.785156 0.628906 -3.832031 C 0.578125 -3.867188 0.503906 -3.894531 0.414062 -3.914062 C 0.320312 -3.933594 0.230469 -3.945312 0.144531 -3.949219 L 0.144531 -4.234375 L 1.601562 -4.332031 L 1.664062 -4.28125 L 1.664062 -3.796875 L 1.695312 -3.789062 C 1.847656 -3.960938 2.035156 -4.109375 2.257812 -4.222656 C 2.480469 -4.339844 2.703125 -4.398438 2.921875 -4.398438 C 3.1875 -4.398438 3.429688 -4.339844 3.652344 -4.226562 C 3.875 -4.113281 4.0625 -3.960938 4.222656 -3.773438 M 3.515625 -0.695312 C 3.632812 -0.875 3.71875 -1.082031 3.773438 -1.320312 C 3.828125 -1.558594 3.855469 -1.820312 3.855469 -2.113281 C 3.855469 -2.328125 3.832031 -2.546875 3.785156 -2.769531 C 3.738281 -2.992188 3.667969 -3.1875 3.566406 -3.351562 C 3.46875 -3.519531 3.339844 -3.65625 3.179688 -3.757812 C 3.023438 -3.863281 2.832031 -3.914062 2.609375 -3.914062 C 2.394531 -3.914062 2.210938 -3.867188 2.0625 -3.773438 C 1.910156 -3.679688 1.78125 -3.566406 1.671875 -3.4375 L 1.671875 -0.90625 C 1.695312 -0.828125 1.738281 -0.746094 1.800781 -0.664062 C 1.859375 -0.582031 1.925781 -0.507812 1.996094 -0.445312 C 2.085938 -0.375 2.183594 -0.316406 2.289062 -0.269531 C 2.390625 -0.226562 2.519531 -0.203125 2.667969 -0.203125 C 2.832031 -0.203125 2.988281 -0.246094 3.136719 -0.332031 C 3.289062 -0.417969 3.414062 -0.539062 3.515625 -0.695312 Z "/>
</g>
<g id="glyph-0-1">
<path d="M 4.367188 -0.078125 C 4.230469 -0.0273438 4.109375 0.0117188 4.007812 0.0429688 C 3.90625 0.0703125 3.789062 0.0859375 3.660156 0.0859375 C 3.433594 0.0859375 3.253906 0.0351562 3.117188 -0.0703125 C 2.984375 -0.175781 2.898438 -0.332031 2.859375 -0.535156 L 2.835938 -0.535156 C 2.644531 -0.324219 2.445312 -0.167969 2.230469 -0.0546875 C 2.011719 0.0546875 1.753906 0.109375 1.449219 0.109375 C 1.128906 0.109375 0.863281 0.0117188 0.65625 -0.1875 C 0.449219 -0.382812 0.347656 -0.640625 0.347656 -0.960938 C 0.347656 -1.125 0.371094 -1.273438 0.417969 -1.402344 C 0.464844 -1.53125 0.53125 -1.648438 0.625 -1.753906 C 0.699219 -1.839844 0.792969 -1.917969 0.910156 -1.984375 C 1.03125 -2.054688 1.140625 -2.109375 1.246094 -2.148438 C 1.375 -2.199219 1.640625 -2.289062 2.039062 -2.421875 C 2.4375 -2.554688 2.703125 -2.660156 2.84375 -2.734375 L 2.84375 -3.164062 C 2.84375 -3.203125 2.835938 -3.273438 2.820312 -3.382812 C 2.804688 -3.488281 2.769531 -3.589844 2.71875 -3.683594 C 2.660156 -3.792969 2.578125 -3.886719 2.472656 -3.964844 C 2.367188 -4.042969 2.214844 -4.085938 2.023438 -4.085938 C 1.890625 -4.085938 1.765625 -4.0625 1.652344 -4.015625 C 1.539062 -3.972656 1.457031 -3.925781 1.410156 -3.875 C 1.410156 -3.816406 1.425781 -3.734375 1.453125 -3.621094 C 1.480469 -3.507812 1.492188 -3.402344 1.492188 -3.308594 C 1.492188 -3.207031 1.449219 -3.113281 1.355469 -3.03125 C 1.265625 -2.945312 1.136719 -2.902344 0.976562 -2.902344 C 0.832031 -2.902344 0.726562 -2.957031 0.65625 -3.058594 C 0.589844 -3.160156 0.554688 -3.277344 0.554688 -3.402344 C 0.554688 -3.535156 0.601562 -3.664062 0.695312 -3.785156 C 0.789062 -3.90625 0.914062 -4.015625 1.0625 -4.109375 C 1.195312 -4.191406 1.351562 -4.261719 1.535156 -4.316406 C 1.722656 -4.371094 1.902344 -4.402344 2.078125 -4.402344 C 2.320312 -4.402344 2.535156 -4.382812 2.714844 -4.351562 C 2.894531 -4.316406 3.058594 -4.246094 3.207031 -4.136719 C 3.355469 -4.03125 3.46875 -3.882812 3.542969 -3.699219 C 3.621094 -3.515625 3.660156 -3.28125 3.660156 -2.992188 C 3.660156 -2.578125 3.65625 -2.210938 3.644531 -1.890625 C 3.636719 -1.570312 3.632812 -1.222656 3.632812 -0.84375 C 3.632812 -0.730469 3.652344 -0.640625 3.691406 -0.574219 C 3.730469 -0.507812 3.789062 -0.449219 3.871094 -0.402344 C 3.914062 -0.378906 3.984375 -0.363281 4.078125 -0.359375 C 4.171875 -0.355469 4.269531 -0.355469 4.367188 -0.355469 L 4.367188 -0.078125 M 2.851562 -2.371094 C 2.605469 -2.296875 2.390625 -2.226562 2.203125 -2.15625 C 2.019531 -2.085938 1.847656 -2 1.6875 -1.894531 C 1.542969 -1.796875 1.429688 -1.679688 1.34375 -1.546875 C 1.261719 -1.410156 1.21875 -1.25 1.21875 -1.066406 C 1.21875 -0.824219 1.28125 -0.648438 1.410156 -0.535156 C 1.535156 -0.421875 1.695312 -0.363281 1.886719 -0.363281 C 2.09375 -0.363281 2.273438 -0.414062 2.429688 -0.515625 C 2.585938 -0.613281 2.71875 -0.734375 2.824219 -0.871094 Z "/>
</g>
<g id="glyph-0-2">
<path d="M -0.0117188 1.398438 C -0.0117188 1.253906 0.0273438 1.136719 0.105469 1.042969 C 0.1875 0.953125 0.285156 0.90625 0.402344 0.90625 C 0.496094 0.90625 0.574219 0.925781 0.640625 0.957031 C 0.707031 0.992188 0.769531 1.039062 0.820312 1.09375 C 0.863281 1.136719 0.910156 1.195312 0.960938 1.269531 C 1.007812 1.34375 1.046875 1.40625 1.078125 1.453125 C 1.222656 1.375 1.394531 1.171875 1.59375 0.84375 C 1.796875 0.515625 1.941406 0.226562 2.03125 -0.0234375 C 1.757812 -0.707031 1.507812 -1.320312 1.285156 -1.863281 C 1.0625 -2.402344 0.828125 -2.964844 0.585938 -3.542969 C 0.53125 -3.675781 0.4375 -3.777344 0.308594 -3.851562 C 0.179688 -3.925781 0.046875 -3.972656 -0.0820312 -3.992188 L -0.0820312 -4.28125 L 1.871094 -4.28125 L 1.871094 -3.976562 C 1.785156 -3.972656 1.679688 -3.953125 1.558594 -3.921875 C 1.4375 -3.886719 1.375 -3.851562 1.375 -3.808594 C 1.375 -3.789062 1.382812 -3.761719 1.394531 -3.71875 C 1.410156 -3.679688 1.425781 -3.636719 1.441406 -3.59375 C 1.550781 -3.308594 1.71875 -2.894531 1.945312 -2.355469 C 2.167969 -1.816406 2.34375 -1.386719 2.46875 -1.0625 C 2.597656 -1.371094 2.734375 -1.691406 2.875 -2.023438 C 3.015625 -2.351562 3.171875 -2.746094 3.34375 -3.195312 C 3.367188 -3.25 3.394531 -3.324219 3.433594 -3.421875 C 3.46875 -3.519531 3.488281 -3.601562 3.488281 -3.671875 C 3.488281 -3.746094 3.421875 -3.816406 3.292969 -3.882812 C 3.160156 -3.949219 3.035156 -3.988281 2.914062 -4 L 2.914062 -4.28125 L 4.503906 -4.28125 L 4.503906 -4.011719 C 4.417969 -3.996094 4.304688 -3.945312 4.164062 -3.859375 C 4.019531 -3.777344 3.914062 -3.65625 3.84375 -3.5 C 3.5 -2.699219 3.195312 -1.972656 2.925781 -1.316406 C 2.660156 -0.660156 2.457031 -0.175781 2.316406 0.132812 C 2.136719 0.539062 1.972656 0.855469 1.828125 1.082031 C 1.6875 1.308594 1.546875 1.488281 1.410156 1.617188 C 1.277344 1.742188 1.15625 1.824219 1.046875 1.863281 C 0.941406 1.90625 0.828125 1.925781 0.710938 1.925781 C 0.484375 1.925781 0.308594 1.875 0.179688 1.765625 C 0.0507812 1.660156 -0.0117188 1.535156 -0.0117188 1.398438 Z "/>
</g>
</g>
</defs>
<g fill="rgb(100%, 100%, 100%)" fill-opacity="1">
<use xlink:href="#glyph-0-0" x="30" y="28.150391"/>
<use xlink:href="#glyph-0-1" x="35" y="28.150391"/>
<use xlink:href="#glyph-0-2" x="39" y="28.150391"/>
</g>
</svg>
