<?xml version="1.0" encoding="UTF-8"?>
<svg xmlns="http://www.w3.org/2000/svg" xmlns:xlink="http://www.w3.org/1999/xlink" width="1920" height="1080" viewBox="0 0 1920 1080">
<defs>
<g>
<g id="glyph-0-0">
<path d="M 2.140625 0 L 0.234375 0 L 0.234375 -0.210938 C 0.289062 -0.214844 0.367188 -0.222656 0.46875 -0.230469 C 0.570312 -0.238281 0.640625 -0.25 0.683594 -0.265625 C 0.75 -0.292969 0.796875 -0.328125 0.828125 -0.371094 C 0.855469 -0.417969 0.871094 -0.476562 0.871094 -0.558594 L 0.871094 -3.625 C 0.871094 -3.695312 0.859375 -3.753906 0.839844 -3.800781 C 0.816406 -3.847656 0.765625 -3.886719 0.683594 -3.917969 C 0.625 -3.941406 0.546875 -3.964844 0.457031 -3.984375 C 0.367188 -4.003906 0.292969 -4.019531 0.234375 -4.023438 L 0.234375 -4.234375 L 2.140625 -4.234375 L 2.140625 -4.023438 C 2.082031 -4.019531 2.007812 -4.011719 1.921875 -4 C 1.835938 -3.988281 1.761719 -3.96875 1.699219 -3.949219 C 1.621094 -3.925781 1.570312 -3.886719 1.546875 -3.835938 C 1.519531 -3.78125 1.507812 -3.722656 1.507812 -3.65625 L 1.507812 -0.589844 C 1.507812 -0.523438 1.519531 -0.46875 1.550781 -0.417969 C 1.578125 -0.367188 1.628906 -0.324219 1.699219 -0.296875 C 1.738281 -0.28125 1.808594 -0.261719 1.902344 -0.242188 C 1.996094 -0.222656 2.078125 -0.214844 2.140625 -0.210938 Z "/>
</g>
<g id="glyph-0-1">
<path d="M 4.636719 -4.023438 C 4.582031 -4.019531 4.496094 -4.003906 4.378906 -3.972656 C 4.265625 -3.945312 4.183594 -3.914062 4.132812 -3.882812 C 4.0625 -3.832031 4.011719 -3.738281 3.988281 -3.59375 C 3.960938 -3.453125 3.949219 -3.273438 3.949219 -3.058594 L 3.949219 0.0429688 L 3.691406 0.0429688 L 1.125 -3.421875 L 1.125 -1.238281 C 1.125 -0.992188 1.140625 -0.804688 1.171875 -0.675781 C 1.203125 -0.542969 1.25 -0.449219 1.3125 -0.394531 C 1.359375 -0.351562 1.453125 -0.308594 1.597656 -0.273438 C 1.738281 -0.234375 1.835938 -0.214844 1.878906 -0.210938 L 1.878906 0 L 0.144531 0 L 0.144531 -0.210938 C 0.195312 -0.214844 0.289062 -0.234375 0.414062 -0.269531 C 0.542969 -0.304688 0.621094 -0.335938 0.652344 -0.363281 C 0.722656 -0.417969 0.769531 -0.503906 0.796875 -0.617188 C 0.824219 -0.734375 0.835938 -0.929688 0.835938 -1.207031 L 0.835938 -3.292969 C 0.835938 -3.382812 0.820312 -3.472656 0.789062 -3.566406 C 0.757812 -3.65625 0.714844 -3.726562 0.660156 -3.777344 C 0.585938 -3.84375 0.492188 -3.898438 0.367188 -3.945312 C 0.246094 -3.992188 0.148438 -4.019531 0.0703125 -4.023438 L 0.0703125 -4.234375 L 1.28125 -4.234375 L 3.660156 -1.007812 L 3.660156 -3.019531 C 3.660156 -3.265625 3.644531 -3.457031 3.613281 -3.589844 C 3.582031 -3.71875 3.535156 -3.808594 3.476562 -3.851562 C 3.421875 -3.890625 3.328125 -3.925781 3.203125 -3.960938 C 3.078125 -4 2.980469 -4.019531 2.914062 -4.023438 L 2.914062 -4.234375 L 4.636719 -4.234375 Z "/>
</g>
<g id="glyph-0-2">
<path d="M 3.734375 -3.085938 L 3.53125 -3.085938 C 3.511719 -3.15625 3.480469 -3.242188 3.433594 -3.339844 C 3.386719 -3.4375 3.332031 -3.53125 3.277344 -3.621094 C 3.214844 -3.710938 3.152344 -3.789062 3.078125 -3.859375 C 3.007812 -3.929688 2.941406 -3.96875 2.875 -3.976562 C 2.8125 -3.984375 2.734375 -3.992188 2.640625 -3.996094 C 2.546875 -4 2.460938 -4 2.382812 -4 L 2.207031 -4 L 2.207031 -0.613281 C 2.207031 -0.550781 2.222656 -0.488281 2.25 -0.433594 C 2.277344 -0.378906 2.328125 -0.335938 2.394531 -0.308594 C 2.433594 -0.292969 2.507812 -0.273438 2.621094 -0.25 C 2.734375 -0.226562 2.824219 -0.214844 2.886719 -0.210938 L 2.886719 0 L 0.890625 0 L 0.890625 -0.210938 C 0.945312 -0.214844 1.03125 -0.222656 1.144531 -0.234375 C 1.257812 -0.246094 1.335938 -0.261719 1.382812 -0.28125 C 1.445312 -0.304688 1.496094 -0.34375 1.527344 -0.390625 C 1.558594 -0.441406 1.574219 -0.507812 1.574219 -0.585938 L 1.574219 -4 L 1.398438 -4 C 1.335938 -4 1.261719 -4 1.167969 -3.996094 C 1.078125 -3.992188 0.992188 -3.988281 0.90625 -3.976562 C 0.839844 -3.96875 0.773438 -3.929688 0.703125 -3.859375 C 0.632812 -3.789062 0.566406 -3.707031 0.507812 -3.621094 C 0.449219 -3.53125 0.394531 -3.433594 0.347656 -3.335938 C 0.304688 -3.234375 0.273438 -3.152344 0.253906 -3.085938 L 0.0429688 -3.085938 L 0.0429688 -4.234375 L 3.734375 -4.234375 Z "/>
</g>
<g id="glyph-0-3">
</g>
<g id="glyph-0-4">
<path d="M 3.5 -1.484375 L 2.152344 -1.484375 L 2.152344 -0.136719 L 1.773438 -0.136719 L 1.773438 -1.484375 L 0.429688 -1.484375 L 0.429688 -1.855469 L 1.773438 -1.855469 L 1.773438 -3.203125 L 2.152344 -3.203125 L 2.152344 -1.855469 L 3.5 -1.855469 Z "/>
</g>
<g id="glyph-0-5">
<path d="M 5.386719 0 L 3.519531 0 L 3.519531 -0.210938 C 3.585938 -0.214844 3.671875 -0.222656 3.777344 -0.234375 C 3.886719 -0.246094 3.957031 -0.261719 4 -0.285156 C 4.058594 -0.320312 4.105469 -0.363281 4.132812 -0.414062 C 4.164062 -0.460938 4.175781 -0.523438 4.175781 -0.597656 L 4.175781 -3.675781 L 4.132812 -3.675781 L 2.6875 -0.0703125 L 2.539062 -0.0703125 L 1.164062 -3.75 L 1.125 -3.75 L 1.125 -1.222656 C 1.125 -0.980469 1.140625 -0.792969 1.171875 -0.664062 C 1.203125 -0.539062 1.25 -0.445312 1.3125 -0.390625 C 1.355469 -0.347656 1.445312 -0.308594 1.585938 -0.273438 C 1.722656 -0.234375 1.8125 -0.214844 1.851562 -0.210938 L 1.851562 0 L 0.144531 0 L 0.144531 -0.210938 C 0.234375 -0.21875 0.328125 -0.234375 0.425781 -0.257812 C 0.523438 -0.277344 0.601562 -0.3125 0.652344 -0.355469 C 0.722656 -0.410156 0.769531 -0.496094 0.796875 -0.613281 C 0.824219 -0.726562 0.835938 -0.921875 0.835938 -1.191406 L 0.835938 -3.355469 C 0.835938 -3.480469 0.820312 -3.585938 0.789062 -3.664062 C 0.761719 -3.742188 0.71875 -3.808594 0.664062 -3.859375 C 0.601562 -3.910156 0.523438 -3.953125 0.4375 -3.976562 C 0.347656 -4.003906 0.257812 -4.019531 0.171875 -4.023438 L 0.171875 -4.234375 L 1.613281 -4.234375 L 2.828125 -1.054688 L 3.863281 -3.714844 C 3.898438 -3.8125 3.933594 -3.914062 3.957031 -4.019531 C 3.984375 -4.125 4 -4.199219 4.003906 -4.234375 L 5.382812 -4.234375 L 5.382812 -4.023438 C 5.328125 -4.019531 5.253906 -4.011719 5.167969 -3.996094 C 5.082031 -3.980469 5.019531 -3.964844 4.980469 -3.949219 C 4.914062 -3.925781 4.867188 -3.886719 4.84375 -3.832031 C 4.820312 -3.777344 4.808594 -3.714844 4.808594 -3.648438 L 4.808594 -0.597656 C 4.808594 -0.527344 4.820312 -0.46875 4.84375 -0.421875 C 4.867188 -0.371094 4.914062 -0.332031 4.980469 -0.296875 C 5.015625 -0.277344 5.078125 -0.257812 5.171875 -0.238281 C 5.261719 -0.222656 5.335938 -0.214844 5.386719 -0.210938 Z "/>
</g>
<g id="glyph-0-6">
<path d="M 3.851562 -1.246094 L 3.769531 0 L 0.257812 0 L 0.257812 -0.210938 C 0.316406 -0.214844 0.394531 -0.222656 0.496094 -0.238281 C 0.59375 -0.25 0.660156 -0.261719 0.6875 -0.277344 C 0.753906 -0.308594 0.796875 -0.347656 0.820312 -0.394531 C 0.847656 -0.441406 0.859375 -0.503906 0.859375 -0.574219 L 0.859375 -3.621094 C 0.859375 -3.683594 0.847656 -3.742188 0.828125 -3.792969 C 0.804688 -3.84375 0.757812 -3.886719 0.6875 -3.917969 C 0.636719 -3.945312 0.5625 -3.964844 0.472656 -3.984375 C 0.382812 -4.007812 0.308594 -4.019531 0.257812 -4.023438 L 0.257812 -4.234375 L 3.53125 -4.234375 L 3.53125 -3.214844 L 3.308594 -3.214844 C 3.269531 -3.363281 3.183594 -3.523438 3.050781 -3.695312 C 2.917969 -3.867188 2.792969 -3.957031 2.671875 -3.972656 C 2.613281 -3.980469 2.539062 -3.988281 2.453125 -3.992188 C 2.367188 -3.996094 2.269531 -4 2.160156 -4 L 1.496094 -4 L 1.496094 -2.316406 L 1.972656 -2.316406 C 2.125 -2.316406 2.238281 -2.328125 2.308594 -2.359375 C 2.378906 -2.386719 2.441406 -2.4375 2.496094 -2.503906 C 2.539062 -2.5625 2.574219 -2.636719 2.605469 -2.734375 C 2.636719 -2.832031 2.65625 -2.921875 2.667969 -3.007812 L 2.890625 -3.007812 L 2.890625 -1.347656 L 2.667969 -1.347656 C 2.660156 -1.445312 2.636719 -1.546875 2.601562 -1.652344 C 2.570312 -1.757812 2.53125 -1.835938 2.496094 -1.882812 C 2.433594 -1.960938 2.363281 -2.011719 2.285156 -2.035156 C 2.207031 -2.058594 2.101562 -2.070312 1.972656 -2.070312 L 1.496094 -2.070312 L 1.496094 -0.800781 C 1.496094 -0.675781 1.503906 -0.574219 1.523438 -0.5 C 1.539062 -0.425781 1.574219 -0.371094 1.625 -0.335938 C 1.679688 -0.296875 1.75 -0.273438 1.839844 -0.261719 C 1.925781 -0.25 2.054688 -0.246094 2.21875 -0.246094 C 2.285156 -0.246094 2.371094 -0.246094 2.480469 -0.246094 C 2.585938 -0.246094 2.675781 -0.25 2.75 -0.257812 C 2.828125 -0.265625 2.90625 -0.277344 2.984375 -0.300781 C 3.066406 -0.320312 3.121094 -0.347656 3.15625 -0.386719 C 3.25 -0.480469 3.34375 -0.625 3.445312 -0.820312 C 3.546875 -1.011719 3.609375 -1.15625 3.636719 -1.246094 Z "/>
</g>
<g id="glyph-0-7">
<path d="M 2.925781 -1.941406 C 3.015625 -1.84375 3.082031 -1.734375 3.125 -1.617188 C 3.167969 -1.496094 3.191406 -1.359375 3.191406 -1.203125 C 3.191406 -0.828125 3.050781 -0.519531 2.773438 -0.277344 C 2.5 -0.0351562 2.15625 0.0859375 1.746094 0.0859375 C 1.554688 0.0859375 1.367188 0.0585938 1.179688 0 C 0.988281 -0.0585938 0.828125 -0.132812 0.6875 -0.214844 L 0.5625 0.00390625 L 0.320312 0.00390625 L 0.28125 -1.445312 L 0.523438 -1.445312 C 0.570312 -1.269531 0.628906 -1.105469 0.695312 -0.960938 C 0.761719 -0.816406 0.851562 -0.683594 0.960938 -0.558594 C 1.0625 -0.441406 1.183594 -0.347656 1.324219 -0.277344 C 1.460938 -0.207031 1.621094 -0.171875 1.804688 -0.171875 C 1.941406 -0.171875 2.0625 -0.191406 2.164062 -0.226562 C 2.265625 -0.261719 2.351562 -0.3125 2.414062 -0.378906 C 2.476562 -0.445312 2.523438 -0.523438 2.554688 -0.609375 C 2.585938 -0.699219 2.601562 -0.800781 2.601562 -0.917969 C 2.601562 -1.085938 2.554688 -1.246094 2.457031 -1.390625 C 2.363281 -1.535156 2.222656 -1.648438 2.03125 -1.722656 C 1.902344 -1.773438 1.753906 -1.832031 1.585938 -1.894531 C 1.421875 -1.957031 1.277344 -2.015625 1.15625 -2.070312 C 0.914062 -2.179688 0.730469 -2.320312 0.597656 -2.492188 C 0.464844 -2.667969 0.398438 -2.894531 0.398438 -3.175781 C 0.398438 -3.335938 0.433594 -3.484375 0.5 -3.625 C 0.5625 -3.765625 0.65625 -3.890625 0.777344 -4 C 0.894531 -4.101562 1.03125 -4.183594 1.1875 -4.242188 C 1.34375 -4.300781 1.507812 -4.328125 1.679688 -4.328125 C 1.875 -4.328125 2.050781 -4.300781 2.203125 -4.238281 C 2.359375 -4.179688 2.5 -4.109375 2.625 -4.03125 L 2.746094 -4.234375 L 2.988281 -4.234375 L 3.011719 -2.828125 L 2.769531 -2.828125 C 2.726562 -2.988281 2.675781 -3.144531 2.621094 -3.292969 C 2.566406 -3.4375 2.496094 -3.570312 2.40625 -3.691406 C 2.324219 -3.804688 2.21875 -3.898438 2.09375 -3.96875 C 1.972656 -4.035156 1.820312 -4.070312 1.640625 -4.070312 C 1.453125 -4.070312 1.289062 -4.007812 1.15625 -3.886719 C 1.023438 -3.765625 0.957031 -3.617188 0.957031 -3.441406 C 0.957031 -3.261719 1 -3.109375 1.085938 -2.988281 C 1.171875 -2.867188 1.296875 -2.769531 1.460938 -2.691406 C 1.605469 -2.621094 1.746094 -2.5625 1.886719 -2.511719 C 2.027344 -2.460938 2.164062 -2.40625 2.292969 -2.347656 C 2.414062 -2.296875 2.527344 -2.238281 2.640625 -2.171875 C 2.75 -2.105469 2.84375 -2.03125 2.925781 -1.941406 Z "/>
</g>
</g>
</defs>
<g fill="rgb(0%, 100%, 80%)" fill-opacity="1">
<use xlink:href="#glyph-0-0" x="30" y="25.603516"/>
<use xlink:href="#glyph-0-1" x="32" y="25.603516"/>
<use xlink:href="#glyph-0-0" x="37" y="25.603516"/>
<use xlink:href="#glyph-0-2" x="39" y="25.603516"/>
<use xlink:href="#glyph-0-3" x="43" y="25.603516"/>
<use xlink:href="#glyph-0-4" x="44" y="25.603516"/>
<use xlink:href="#glyph-0-3" x="48" y="25.603516"/>
<use xlink:href="#glyph-0-2" x="49" y="25.603516"/>
<use xlink:href="#glyph-0-0" x="53" y="25.603516"/>
<use xlink:href="#glyph-0-5" x="55" y="25.603516"/>
<use xlink:href="#glyph-0-6" x="61" y="25.603516"/>
<use xlink:href="#glyph-0-7" x="65" y="25.603516"/>
</g>
</svg>
