<?xml version="1.0" encoding="UTF-8"?>
<svg xmlns="http://www.w3.org/2000/svg" xmlns:xlink="http://www.w3.org/1999/xlink" width="1920" height="1080" viewBox="0 0 1920 1080">
<defs>
<g>
<g id="glyph-0-0">
<path d="M 2.335938 0 L 0.257812 0 L 0.257812 -0.230469 C 0.316406 -0.234375 0.398438 -0.242188 0.511719 -0.25 C 0.621094 -0.257812 0.699219 -0.273438 0.746094 -0.289062 C 0.816406 -0.316406 0.867188 -0.355469 0.902344 -0.40625 C 0.933594 -0.453125 0.949219 -0.523438 0.949219 -0.609375 L 0.949219 -3.953125 C 0.949219 -4.03125 0.9375 -4.09375 0.914062 -4.144531 C 0.890625 -4.195312 0.835938 -4.238281 0.746094 -4.273438 C 0.679688 -4.300781 0.597656 -4.324219 0.5 -4.347656 C 0.402344 -4.371094 0.320312 -4.382812 0.257812 -4.386719 L 0.257812 -4.617188 L 2.335938 -4.617188 L 2.335938 -4.386719 C 2.269531 -4.386719 2.191406 -4.378906 2.097656 -4.363281 C 2.003906 -4.347656 1.921875 -4.332031 1.851562 -4.308594 C 1.769531 -4.285156 1.714844 -4.242188 1.6875 -4.183594 C 1.65625 -4.125 1.644531 -4.058594 1.644531 -3.988281 L 1.644531 -0.644531 C 1.644531 -0.574219 1.660156 -0.507812 1.691406 -0.453125 C 1.722656 -0.398438 1.777344 -0.355469 1.851562 -0.320312 C 1.898438 -0.304688 1.972656 -0.285156 2.074219 -0.265625 C 2.179688 -0.246094 2.265625 -0.234375 2.335938 -0.230469 Z "/>
</g>
<g id="glyph-0-1">
<path d="M 5.058594 -4.386719 C 4.996094 -4.386719 4.90625 -4.367188 4.777344 -4.335938 C 4.652344 -4.304688 4.5625 -4.269531 4.507812 -4.234375 C 4.429688 -4.179688 4.378906 -4.078125 4.351562 -3.921875 C 4.324219 -3.769531 4.308594 -3.574219 4.308594 -3.335938 L 4.308594 0.046875 L 4.027344 0.046875 L 1.226562 -3.734375 L 1.226562 -1.351562 C 1.226562 -1.085938 1.242188 -0.878906 1.277344 -0.734375 C 1.3125 -0.59375 1.363281 -0.492188 1.433594 -0.429688 C 1.480469 -0.382812 1.585938 -0.335938 1.742188 -0.296875 C 1.898438 -0.253906 2 -0.234375 2.050781 -0.230469 L 2.050781 0 L 0.15625 0 L 0.15625 -0.230469 C 0.214844 -0.234375 0.3125 -0.257812 0.453125 -0.292969 C 0.589844 -0.332031 0.679688 -0.367188 0.710938 -0.398438 C 0.789062 -0.457031 0.839844 -0.550781 0.867188 -0.675781 C 0.898438 -0.800781 0.910156 -1.011719 0.910156 -1.316406 L 0.910156 -3.589844 C 0.910156 -3.691406 0.894531 -3.789062 0.859375 -3.890625 C 0.824219 -3.988281 0.777344 -4.066406 0.71875 -4.121094 C 0.640625 -4.191406 0.535156 -4.253906 0.402344 -4.304688 C 0.269531 -4.355469 0.160156 -4.382812 0.078125 -4.386719 L 0.078125 -4.617188 L 1.398438 -4.617188 L 3.992188 -1.097656 L 3.992188 -3.292969 C 3.992188 -3.5625 3.976562 -3.769531 3.941406 -3.914062 C 3.90625 -4.058594 3.855469 -4.15625 3.792969 -4.203125 C 3.730469 -4.242188 3.632812 -4.285156 3.496094 -4.324219 C 3.355469 -4.363281 3.25 -4.382812 3.179688 -4.386719 L 3.179688 -4.617188 L 5.058594 -4.617188 Z "/>
</g>
<g id="glyph-0-2">
<path d="M 4.074219 -3.367188 L 3.851562 -3.367188 C 3.832031 -3.445312 3.796875 -3.535156 3.746094 -3.644531 C 3.695312 -3.75 3.636719 -3.851562 3.574219 -3.949219 C 3.507812 -4.046875 3.4375 -4.136719 3.359375 -4.210938 C 3.28125 -4.285156 3.207031 -4.328125 3.136719 -4.339844 C 3.070312 -4.347656 2.984375 -4.355469 2.882812 -4.359375 C 2.78125 -4.363281 2.683594 -4.367188 2.597656 -4.367188 L 2.410156 -4.367188 L 2.410156 -0.671875 C 2.410156 -0.597656 2.425781 -0.535156 2.453125 -0.472656 C 2.484375 -0.414062 2.539062 -0.367188 2.613281 -0.335938 C 2.652344 -0.320312 2.734375 -0.300781 2.859375 -0.273438 C 2.984375 -0.246094 3.082031 -0.234375 3.152344 -0.230469 L 3.152344 0 L 0.96875 0 L 0.96875 -0.230469 C 1.03125 -0.234375 1.125 -0.242188 1.25 -0.257812 C 1.375 -0.269531 1.460938 -0.285156 1.507812 -0.304688 C 1.578125 -0.335938 1.632812 -0.375 1.664062 -0.429688 C 1.699219 -0.480469 1.714844 -0.550781 1.714844 -0.640625 L 1.714844 -4.367188 L 1.527344 -4.367188 C 1.460938 -4.367188 1.375 -4.363281 1.277344 -4.359375 C 1.175781 -4.355469 1.082031 -4.351562 0.988281 -4.339844 C 0.917969 -4.332031 0.84375 -4.289062 0.765625 -4.210938 C 0.691406 -4.132812 0.617188 -4.046875 0.554688 -3.949219 C 0.488281 -3.851562 0.429688 -3.746094 0.378906 -3.636719 C 0.332031 -3.527344 0.296875 -3.4375 0.277344 -3.367188 L 0.046875 -3.367188 L 0.046875 -4.617188 L 4.074219 -4.617188 Z "/>
</g>
<g id="glyph-0-3">
<path d="M 4.625 0 L 2.707031 0 L 2.707031 -0.230469 C 2.875 -0.242188 3.015625 -0.265625 3.128906 -0.296875 C 3.238281 -0.328125 3.292969 -0.367188 3.292969 -0.417969 C 3.292969 -0.4375 3.292969 -0.460938 3.289062 -0.488281 C 3.285156 -0.515625 3.277344 -0.542969 3.269531 -0.5625 L 2.886719 -1.597656 L 1.265625 -1.597656 C 1.203125 -1.445312 1.15625 -1.3125 1.117188 -1.203125 C 1.078125 -1.089844 1.042969 -0.984375 1.015625 -0.886719 C 0.984375 -0.796875 0.964844 -0.71875 0.953125 -0.660156 C 0.945312 -0.601562 0.9375 -0.554688 0.9375 -0.515625 C 0.9375 -0.429688 1.007812 -0.363281 1.144531 -0.316406 C 1.28125 -0.269531 1.433594 -0.238281 1.605469 -0.230469 L 1.605469 0 L -0.132812 0 L -0.132812 -0.230469 C -0.078125 -0.234375 -0.0078125 -0.246094 0.078125 -0.269531 C 0.164062 -0.289062 0.230469 -0.316406 0.285156 -0.351562 C 0.375 -0.410156 0.441406 -0.472656 0.488281 -0.535156 C 0.535156 -0.597656 0.582031 -0.6875 0.628906 -0.800781 C 0.859375 -1.378906 1.117188 -2.03125 1.394531 -2.753906 C 1.675781 -3.476562 1.925781 -4.121094 2.144531 -4.683594 L 2.40625 -4.683594 L 3.945312 -0.699219 C 3.976562 -0.617188 4.015625 -0.546875 4.054688 -0.496094 C 4.097656 -0.441406 4.15625 -0.390625 4.226562 -0.339844 C 4.277344 -0.3125 4.34375 -0.285156 4.421875 -0.265625 C 4.503906 -0.246094 4.570312 -0.234375 4.625 -0.230469 L 4.625 0 M 2.765625 -1.886719 L 2.066406 -3.679688 L 1.378906 -1.886719 Z "/>
</g>
<g id="glyph-0-4">
<path d="M 4.027344 -1.375 L 3.929688 0 L 0.320312 0 L 0.320312 -0.230469 C 0.371094 -0.234375 0.445312 -0.242188 0.546875 -0.253906 C 0.644531 -0.265625 0.710938 -0.277344 0.75 -0.296875 C 0.816406 -0.324219 0.863281 -0.367188 0.894531 -0.417969 C 0.921875 -0.472656 0.9375 -0.542969 0.9375 -0.628906 L 0.9375 -3.933594 C 0.9375 -4.007812 0.925781 -4.074219 0.898438 -4.132812 C 0.875 -4.1875 0.824219 -4.234375 0.75 -4.265625 C 0.703125 -4.292969 0.632812 -4.320312 0.542969 -4.34375 C 0.453125 -4.367188 0.378906 -4.382812 0.320312 -4.386719 L 0.320312 -4.617188 L 2.269531 -4.617188 L 2.269531 -4.386719 C 2.207031 -4.386719 2.128906 -4.375 2.03125 -4.355469 C 1.9375 -4.335938 1.867188 -4.320312 1.824219 -4.304688 C 1.75 -4.277344 1.699219 -4.234375 1.671875 -4.171875 C 1.644531 -4.105469 1.628906 -4.039062 1.628906 -3.96875 L 1.628906 -0.867188 C 1.628906 -0.722656 1.636719 -0.613281 1.652344 -0.53125 C 1.667969 -0.453125 1.699219 -0.390625 1.75 -0.347656 C 1.800781 -0.308594 1.875 -0.285156 1.972656 -0.273438 C 2.074219 -0.261719 2.210938 -0.253906 2.390625 -0.253906 C 2.46875 -0.253906 2.554688 -0.257812 2.640625 -0.261719 C 2.726562 -0.265625 2.808594 -0.273438 2.886719 -0.285156 C 2.964844 -0.300781 3.035156 -0.316406 3.097656 -0.339844 C 3.160156 -0.363281 3.207031 -0.390625 3.238281 -0.425781 C 3.328125 -0.527344 3.429688 -0.675781 3.550781 -0.878906 C 3.667969 -1.082031 3.75 -1.246094 3.796875 -1.375 Z "/>
</g>
<g id="glyph-0-5">
<path d="M 3.953125 -1.441406 L 3.796875 0 L 0.0859375 0 L 0.0859375 -0.113281 L 2.996094 -4.363281 L 1.929688 -4.363281 C 1.804688 -4.363281 1.703125 -4.359375 1.621094 -4.355469 C 1.535156 -4.351562 1.460938 -4.34375 1.390625 -4.328125 C 1.246094 -4.300781 1.085938 -4.183594 0.90625 -3.972656 C 0.726562 -3.765625 0.59375 -3.546875 0.5 -3.3125 L 0.273438 -3.3125 L 0.414062 -4.617188 L 3.875 -4.617188 L 3.875 -4.503906 L 0.96875 -0.257812 L 2.0625 -0.257812 C 2.25 -0.257812 2.445312 -0.269531 2.652344 -0.296875 C 2.863281 -0.320312 2.996094 -0.367188 3.058594 -0.429688 C 3.199219 -0.5625 3.332031 -0.730469 3.453125 -0.925781 C 3.574219 -1.121094 3.664062 -1.292969 3.722656 -1.441406 Z "/>
</g>
<g id="glyph-0-6">
<path d="M 4.050781 -4.070312 C 4.253906 -3.859375 4.414062 -3.601562 4.527344 -3.300781 C 4.644531 -3 4.699219 -2.667969 4.699219 -2.304688 C 4.699219 -1.9375 4.640625 -1.605469 4.523438 -1.304688 C 4.40625 -1.007812 4.246094 -0.75 4.035156 -0.539062 C 3.835938 -0.332031 3.601562 -0.171875 3.332031 -0.0585938 C 3.066406 0.0546875 2.78125 0.109375 2.480469 0.109375 C 2.160156 0.109375 1.863281 0.0507812 1.589844 -0.0703125 C 1.316406 -0.191406 1.085938 -0.359375 0.886719 -0.574219 C 0.691406 -0.785156 0.539062 -1.039062 0.429688 -1.339844 C 0.316406 -1.640625 0.261719 -1.960938 0.261719 -2.304688 C 0.261719 -2.679688 0.320312 -3.015625 0.4375 -3.308594 C 0.554688 -3.601562 0.714844 -3.855469 0.921875 -4.070312 C 1.125 -4.285156 1.363281 -4.449219 1.632812 -4.5625 C 1.902344 -4.671875 2.183594 -4.730469 2.480469 -4.730469 C 2.785156 -4.730469 3.074219 -4.671875 3.347656 -4.558594 C 3.617188 -4.441406 3.851562 -4.28125 4.050781 -4.070312 M 3.5625 -0.796875 C 3.6875 -0.996094 3.773438 -1.21875 3.828125 -1.46875 C 3.886719 -1.71875 3.914062 -1.996094 3.914062 -2.304688 C 3.914062 -2.621094 3.882812 -2.914062 3.820312 -3.175781 C 3.757812 -3.441406 3.667969 -3.667969 3.546875 -3.855469 C 3.429688 -4.039062 3.277344 -4.183594 3.097656 -4.285156 C 2.917969 -4.386719 2.710938 -4.441406 2.480469 -4.441406 C 2.21875 -4.441406 2 -4.378906 1.816406 -4.261719 C 1.632812 -4.140625 1.484375 -3.980469 1.371094 -3.78125 C 1.261719 -3.589844 1.179688 -3.367188 1.128906 -3.113281 C 1.074219 -2.855469 1.046875 -2.585938 1.046875 -2.304688 C 1.046875 -1.992188 1.078125 -1.710938 1.132812 -1.457031 C 1.1875 -1.207031 1.277344 -0.984375 1.398438 -0.789062 C 1.515625 -0.597656 1.664062 -0.449219 1.84375 -0.339844 C 2.019531 -0.234375 2.234375 -0.179688 2.480469 -0.179688 C 2.710938 -0.179688 2.921875 -0.234375 3.109375 -0.339844 C 3.296875 -0.449219 3.445312 -0.601562 3.5625 -0.796875 Z "/>
</g>
</g>
</defs>
<g fill="rgb(0%, 100%, 80%)" fill-opacity="1">
<use xlink:href="#glyph-0-0" x="30" y="26.112305"/>
<use xlink:href="#glyph-0-1" x="33" y="26.112305"/>
<use xlink:href="#glyph-0-0" x="38" y="26.112305"/>
<use xlink:href="#glyph-0-2" x="41" y="26.112305"/>
<use xlink:href="#glyph-0-0" x="45" y="26.112305"/>
<use xlink:href="#glyph-0-3" x="48" y="26.112305"/>
<use xlink:href="#glyph-0-4" x="52" y="26.112305"/>
<use xlink:href="#glyph-0-0" x="56" y="26.112305"/>
<use xlink:href="#glyph-0-5" x="59" y="26.112305"/>
<use xlink:href="#glyph-0-3" x="63" y="26.112305"/>
<use xlink:href="#glyph-0-2" x="67" y="26.112305"/>
<use xlink:href="#glyph-0-0" x="71" y="26.112305"/>
<use xlink:href="#glyph-0-6" x="74" y="26.112305"/>
<use xlink:href="#glyph-0-1" x="79" y="26.112305"/>
</g>
</svg>
