<?xml version="1.0" encoding="UTF-8"?>
<svg xmlns="http://www.w3.org/2000/svg" xmlns:xlink="http://www.w3.org/1999/xlink" width="1920" height="1080" viewBox="0 0 1920 1080">
<defs>
<g>
<g id="glyph-0-0">
<path d="M 3.695312 -3.300781 C 3.84375 -3.121094 3.960938 -2.917969 4.042969 -2.683594 C 4.125 -2.449219 4.164062 -2.179688 4.164062 -1.878906 C 4.164062 -1.582031 4.117188 -1.3125 4.019531 -1.070312 C 3.917969 -0.824219 3.789062 -0.617188 3.625 -0.445312 C 3.457031 -0.269531 3.269531 -0.136719 3.0625 -0.0429688 C 2.851562 0.0507812 2.632812 0.0976562 2.398438 0.0976562 C 2.175781 0.0976562 1.988281 0.0742188 1.84375 0.0234375 C 1.703125 -0.0273438 1.582031 -0.0859375 1.492188 -0.15625 L 1.460938 -0.15625 L 1.460938 0.972656 C 1.460938 1.0625 1.480469 1.136719 1.515625 1.199219 C 1.550781 1.261719 1.605469 1.304688 1.679688 1.332031 C 1.738281 1.355469 1.824219 1.378906 1.9375 1.398438 C 2.050781 1.421875 2.144531 1.433594 2.21875 1.433594 L 2.21875 1.6875 L 0.125 1.6875 L 0.125 1.433594 C 0.203125 1.429688 0.28125 1.425781 0.351562 1.417969 C 0.425781 1.410156 0.492188 1.394531 0.550781 1.378906 C 0.625 1.351562 0.679688 1.308594 0.710938 1.246094 C 0.742188 1.183594 0.753906 1.109375 0.753906 1.023438 L 0.753906 -2.960938 C 0.753906 -3.039062 0.738281 -3.113281 0.699219 -3.183594 C 0.660156 -3.253906 0.613281 -3.308594 0.550781 -3.351562 C 0.503906 -3.382812 0.441406 -3.40625 0.359375 -3.421875 C 0.28125 -3.441406 0.203125 -3.449219 0.125 -3.457031 L 0.125 -3.707031 L 1.402344 -3.789062 L 1.453125 -3.746094 L 1.453125 -3.324219 L 1.484375 -3.316406 C 1.617188 -3.46875 1.78125 -3.59375 1.976562 -3.695312 C 2.167969 -3.796875 2.363281 -3.847656 2.554688 -3.847656 C 2.789062 -3.847656 3 -3.796875 3.195312 -3.699219 C 3.390625 -3.601562 3.554688 -3.46875 3.695312 -3.300781 M 3.074219 -0.609375 C 3.175781 -0.765625 3.25 -0.945312 3.300781 -1.15625 C 3.347656 -1.363281 3.371094 -1.59375 3.371094 -1.847656 C 3.371094 -2.035156 3.351562 -2.226562 3.3125 -2.421875 C 3.269531 -2.617188 3.207031 -2.789062 3.121094 -2.933594 C 3.035156 -3.078125 2.921875 -3.199219 2.785156 -3.289062 C 2.644531 -3.378906 2.476562 -3.425781 2.28125 -3.425781 C 2.09375 -3.425781 1.933594 -3.382812 1.804688 -3.300781 C 1.671875 -3.21875 1.558594 -3.121094 1.460938 -3.007812 L 1.460938 -0.792969 C 1.484375 -0.726562 1.523438 -0.65625 1.574219 -0.582031 C 1.625 -0.507812 1.683594 -0.445312 1.746094 -0.390625 C 1.824219 -0.328125 1.910156 -0.277344 2 -0.238281 C 2.09375 -0.199219 2.203125 -0.179688 2.335938 -0.179688 C 2.476562 -0.179688 2.613281 -0.214844 2.746094 -0.289062 C 2.878906 -0.363281 2.988281 -0.472656 3.074219 -0.609375 Z "/>
</g>
<g id="glyph-0-1">
<path d="M 2.089844 0 L 0.28125 0 L 0.28125 -0.25 C 0.339844 -0.253906 0.398438 -0.261719 0.460938 -0.265625 C 0.523438 -0.269531 0.578125 -0.28125 0.621094 -0.296875 C 0.695312 -0.320312 0.746094 -0.359375 0.78125 -0.414062 C 0.816406 -0.472656 0.832031 -0.546875 0.832031 -0.636719 L 0.832031 -2.949219 C 0.832031 -3.027344 0.8125 -3.101562 0.777344 -3.167969 C 0.738281 -3.238281 0.6875 -3.292969 0.621094 -3.339844 C 0.574219 -3.367188 0.503906 -3.394531 0.414062 -3.414062 C 0.324219 -3.4375 0.238281 -3.449219 0.164062 -3.457031 L 0.164062 -3.707031 L 1.484375 -3.789062 L 1.539062 -3.738281 L 1.539062 -0.683594 C 1.539062 -0.59375 1.554688 -0.523438 1.589844 -0.464844 C 1.621094 -0.40625 1.675781 -0.363281 1.75 -0.335938 C 1.804688 -0.3125 1.859375 -0.292969 1.910156 -0.277344 C 1.964844 -0.265625 2.023438 -0.253906 2.089844 -0.25 L 2.089844 0 M 1.613281 -5.265625 C 1.613281 -5.121094 1.566406 -4.996094 1.472656 -4.890625 C 1.375 -4.78125 1.257812 -4.726562 1.121094 -4.726562 C 0.992188 -4.726562 0.878906 -4.777344 0.785156 -4.882812 C 0.6875 -4.984375 0.640625 -5.101562 0.640625 -5.234375 C 0.640625 -5.371094 0.6875 -5.492188 0.785156 -5.597656 C 0.878906 -5.703125 0.992188 -5.753906 1.121094 -5.753906 C 1.265625 -5.753906 1.382812 -5.703125 1.476562 -5.605469 C 1.566406 -5.507812 1.613281 -5.394531 1.613281 -5.265625 Z "/>
</g>
<g id="glyph-0-2">
<path d="M 2.003906 0.0976562 C 1.464844 0.0976562 1.039062 -0.0820312 0.734375 -0.441406 C 0.425781 -0.800781 0.273438 -1.28125 0.273438 -1.886719 C 0.273438 -2.152344 0.316406 -2.398438 0.398438 -2.625 C 0.480469 -2.855469 0.597656 -3.0625 0.753906 -3.25 C 0.90625 -3.429688 1.09375 -3.574219 1.316406 -3.683594 C 1.542969 -3.796875 1.789062 -3.851562 2.054688 -3.851562 C 2.421875 -3.851562 2.71875 -3.761719 2.949219 -3.585938 C 3.179688 -3.410156 3.296875 -3.171875 3.296875 -2.867188 C 3.296875 -2.742188 3.265625 -2.628906 3.207031 -2.53125 C 3.144531 -2.433594 3.042969 -2.386719 2.90625 -2.386719 C 2.753906 -2.386719 2.640625 -2.421875 2.558594 -2.5 C 2.476562 -2.574219 2.433594 -2.660156 2.433594 -2.753906 C 2.433594 -2.867188 2.449219 -2.980469 2.480469 -3.101562 C 2.511719 -3.222656 2.527344 -3.308594 2.53125 -3.367188 C 2.488281 -3.445312 2.421875 -3.496094 2.332031 -3.523438 C 2.242188 -3.550781 2.144531 -3.5625 2.039062 -3.5625 C 1.917969 -3.5625 1.804688 -3.535156 1.695312 -3.484375 C 1.585938 -3.433594 1.476562 -3.335938 1.375 -3.199219 C 1.28125 -3.070312 1.203125 -2.898438 1.148438 -2.683594 C 1.089844 -2.46875 1.058594 -2.210938 1.058594 -1.914062 C 1.058594 -1.441406 1.164062 -1.058594 1.371094 -0.761719 C 1.582031 -0.464844 1.855469 -0.316406 2.191406 -0.316406 C 2.4375 -0.316406 2.644531 -0.375 2.808594 -0.496094 C 2.976562 -0.613281 3.128906 -0.792969 3.269531 -1.03125 L 3.511719 -0.875 C 3.34375 -0.574219 3.125 -0.339844 2.851562 -0.164062 C 2.578125 0.0117188 2.296875 0.0976562 2.003906 0.0976562 Z "/>
</g>
<g id="glyph-0-3">
<path d="M 4.242188 0 L 3.113281 0 C 2.914062 -0.285156 2.703125 -0.59375 2.476562 -0.917969 C 2.25 -1.246094 2.015625 -1.5625 1.773438 -1.871094 L 1.460938 -1.578125 L 1.460938 -0.691406 C 1.460938 -0.601562 1.476562 -0.523438 1.511719 -0.464844 C 1.542969 -0.40625 1.597656 -0.363281 1.671875 -0.335938 C 1.730469 -0.308594 1.789062 -0.289062 1.84375 -0.277344 C 1.902344 -0.265625 1.964844 -0.253906 2.039062 -0.25 L 2.039062 0 L 0.203125 0 L 0.203125 -0.25 C 0.261719 -0.253906 0.324219 -0.261719 0.386719 -0.269531 C 0.449219 -0.273438 0.5 -0.285156 0.542969 -0.296875 C 0.613281 -0.320312 0.667969 -0.359375 0.703125 -0.414062 C 0.738281 -0.472656 0.753906 -0.546875 0.753906 -0.636719 L 0.753906 -4.992188 C 0.753906 -5.085938 0.734375 -5.175781 0.695312 -5.257812 C 0.65625 -5.339844 0.605469 -5.402344 0.542969 -5.445312 C 0.488281 -5.484375 0.40625 -5.511719 0.292969 -5.523438 C 0.183594 -5.539062 0.0898438 -5.546875 0.0234375 -5.550781 L 0.0234375 -5.796875 L 1.410156 -5.878906 L 1.460938 -5.820312 L 1.460938 -1.859375 C 1.660156 -2.058594 1.875 -2.269531 2.101562 -2.496094 C 2.332031 -2.722656 2.523438 -2.925781 2.683594 -3.101562 C 2.703125 -3.125 2.722656 -3.152344 2.75 -3.191406 C 2.773438 -3.226562 2.785156 -3.257812 2.785156 -3.28125 C 2.785156 -3.347656 2.730469 -3.398438 2.621094 -3.433594 C 2.507812 -3.464844 2.402344 -3.488281 2.300781 -3.5 L 2.300781 -3.746094 L 3.949219 -3.746094 L 3.949219 -3.507812 C 3.738281 -3.445312 3.546875 -3.367188 3.386719 -3.273438 C 3.222656 -3.175781 3.097656 -3.089844 3.011719 -3.015625 C 2.949219 -2.964844 2.863281 -2.882812 2.753906 -2.769531 C 2.640625 -2.65625 2.484375 -2.503906 2.285156 -2.320312 C 2.492188 -2.066406 2.726562 -1.757812 2.988281 -1.402344 C 3.246094 -1.042969 3.433594 -0.785156 3.554688 -0.625 C 3.664062 -0.476562 3.765625 -0.378906 3.855469 -0.335938 C 3.941406 -0.289062 4.070312 -0.261719 4.242188 -0.25 Z "/>
</g>
<g id="glyph-0-4">
<path d="M 4.289062 -0.0664062 L 3.066406 0.015625 L 3.007812 -0.0390625 L 3.007812 -0.511719 L 2.984375 -0.511719 C 2.925781 -0.449219 2.855469 -0.382812 2.78125 -0.308594 C 2.703125 -0.238281 2.617188 -0.171875 2.519531 -0.113281 C 2.40625 -0.046875 2.292969 0.0078125 2.1875 0.0429688 C 2.082031 0.078125 1.933594 0.09375 1.738281 0.09375 C 1.40625 0.09375 1.15625 -0.0117188 0.980469 -0.230469 C 0.808594 -0.445312 0.722656 -0.761719 0.722656 -1.171875 L 0.722656 -2.960938 C 0.722656 -3.054688 0.703125 -3.128906 0.671875 -3.191406 C 0.636719 -3.253906 0.585938 -3.308594 0.519531 -3.351562 C 0.472656 -3.382812 0.414062 -3.40625 0.347656 -3.417969 C 0.277344 -3.433594 0.207031 -3.441406 0.128906 -3.449219 L 0.128906 -3.699219 L 1.378906 -3.789062 L 1.433594 -3.738281 L 1.433594 -1.136719 C 1.433594 -0.863281 1.496094 -0.660156 1.617188 -0.523438 C 1.738281 -0.386719 1.886719 -0.320312 2.054688 -0.320312 C 2.195312 -0.320312 2.316406 -0.339844 2.425781 -0.382812 C 2.535156 -0.425781 2.625 -0.476562 2.699219 -0.535156 C 2.769531 -0.589844 2.828125 -0.644531 2.878906 -0.703125 C 2.933594 -0.761719 2.972656 -0.820312 3 -0.867188 L 3 -2.988281 C 3 -3.074219 2.980469 -3.148438 2.945312 -3.210938 C 2.910156 -3.277344 2.863281 -3.332031 2.796875 -3.375 C 2.753906 -3.40625 2.683594 -3.425781 2.59375 -3.429688 C 2.503906 -3.4375 2.40625 -3.441406 2.292969 -3.449219 L 2.292969 -3.699219 L 3.65625 -3.789062 L 3.714844 -3.738281 L 3.714844 -0.765625 C 3.714844 -0.679688 3.730469 -0.605469 3.765625 -0.546875 C 3.800781 -0.484375 3.851562 -0.433594 3.914062 -0.390625 C 3.960938 -0.363281 4.015625 -0.34375 4.078125 -0.335938 C 4.140625 -0.328125 4.210938 -0.320312 4.289062 -0.320312 Z "/>
</g>
</g>
</defs>
<g fill="rgb(100%, 100%, 100%)" fill-opacity="1">
<use xlink:href="#glyph-0-0" x="30" y="27.131836"/>
<use xlink:href="#glyph-0-1" x="34" y="27.131836"/>
<use xlink:href="#glyph-0-2" x="36" y="27.131836"/>
<use xlink:href="#glyph-0-3" x="40" y="27.131836"/>
<use xlink:href="#glyph-0-4" x="44" y="27.131836"/>
<use xlink:href="#glyph-0-0" x="48" y="27.131836"/>
</g>
</svg>
