<?xml version="1.0" encoding="UTF-8"?>
<svg xmlns="http://www.w3.org/2000/svg" xmlns:xlink="http://www.w3.org/1999/xlink" width="1920" height="1080" viewBox="0 0 1920 1080">
<defs>
<g>
<g id="glyph-0-0">
<path d="M 2.328125 -1.070312 C 2.328125 -0.75 2.226562 -0.480469 2.023438 -0.261719 C 1.820312 -0.0429688 1.585938 0.0664062 1.320312 0.0664062 C 1.203125 0.0664062 1.085938 0.046875 0.972656 0.0117188 C 0.859375 -0.0234375 0.753906 -0.0742188 0.652344 -0.132812 L 0.492188 0.113281 L 0.359375 0.0859375 C 0.367188 -0.0234375 0.371094 -0.152344 0.375 -0.300781 C 0.375 -0.453125 0.378906 -0.597656 0.378906 -0.738281 L 0.378906 -2.859375 C 0.378906 -2.90625 0.367188 -2.957031 0.34375 -3.003906 C 0.320312 -3.054688 0.292969 -3.089844 0.257812 -3.113281 C 0.230469 -3.128906 0.183594 -3.144531 0.121094 -3.152344 C 0.0546875 -3.164062 0.00390625 -3.167969 -0.0351562 -3.171875 L -0.0351562 -3.3125 L 0.75 -3.359375 L 0.78125 -3.328125 L 0.78125 -1.917969 L 0.796875 -1.910156 C 0.886719 -2.007812 0.984375 -2.078125 1.089844 -2.125 C 1.195312 -2.175781 1.300781 -2.199219 1.402344 -2.199219 C 1.667969 -2.199219 1.886719 -2.09375 2.0625 -1.886719 C 2.238281 -1.675781 2.328125 -1.40625 2.328125 -1.070312 M 1.875 -1.058594 C 1.875 -1.164062 1.863281 -1.273438 1.839844 -1.382812 C 1.816406 -1.496094 1.78125 -1.59375 1.730469 -1.675781 C 1.683594 -1.757812 1.617188 -1.828125 1.539062 -1.878906 C 1.457031 -1.929688 1.363281 -1.957031 1.253906 -1.957031 C 1.152344 -1.957031 1.0625 -1.9375 0.984375 -1.898438 C 0.910156 -1.859375 0.84375 -1.804688 0.78125 -1.734375 L 0.78125 -0.492188 C 0.789062 -0.457031 0.808594 -0.414062 0.832031 -0.367188 C 0.859375 -0.324219 0.890625 -0.277344 0.933594 -0.238281 C 0.980469 -0.195312 1.027344 -0.164062 1.082031 -0.136719 C 1.136719 -0.113281 1.203125 -0.101562 1.285156 -0.101562 C 1.460938 -0.101562 1.605469 -0.183594 1.710938 -0.355469 C 1.820312 -0.527344 1.875 -0.761719 1.875 -1.058594 Z "/>
</g>
<g id="glyph-0-1">
<path d="M -0.0078125 0.699219 C -0.0078125 0.625 0.0117188 0.566406 0.0546875 0.523438 C 0.09375 0.476562 0.140625 0.453125 0.203125 0.453125 C 0.246094 0.453125 0.289062 0.460938 0.320312 0.480469 C 0.355469 0.496094 0.382812 0.519531 0.410156 0.546875 C 0.433594 0.566406 0.453125 0.597656 0.480469 0.632812 C 0.503906 0.671875 0.523438 0.703125 0.539062 0.726562 C 0.609375 0.6875 0.695312 0.585938 0.796875 0.421875 C 0.898438 0.257812 0.96875 0.113281 1.015625 -0.0117188 C 0.878906 -0.355469 0.753906 -0.660156 0.640625 -0.929688 C 0.53125 -1.203125 0.414062 -1.480469 0.292969 -1.769531 C 0.265625 -1.835938 0.21875 -1.890625 0.152344 -1.925781 C 0.0898438 -1.960938 0.0234375 -1.984375 -0.0429688 -1.996094 L -0.0429688 -2.140625 L 0.9375 -2.140625 L 0.9375 -1.988281 C 0.890625 -1.984375 0.839844 -1.976562 0.78125 -1.960938 C 0.71875 -1.945312 0.6875 -1.925781 0.6875 -1.902344 C 0.6875 -1.894531 0.691406 -1.878906 0.699219 -1.859375 C 0.703125 -1.839844 0.710938 -1.820312 0.722656 -1.796875 C 0.777344 -1.652344 0.859375 -1.449219 0.972656 -1.179688 C 1.085938 -0.910156 1.171875 -0.691406 1.234375 -0.53125 C 1.300781 -0.683594 1.367188 -0.84375 1.4375 -1.011719 C 1.507812 -1.175781 1.585938 -1.371094 1.671875 -1.597656 C 1.683594 -1.625 1.695312 -1.664062 1.714844 -1.710938 C 1.734375 -1.757812 1.746094 -1.800781 1.746094 -1.835938 C 1.746094 -1.875 1.710938 -1.910156 1.644531 -1.941406 C 1.578125 -1.972656 1.515625 -1.992188 1.457031 -2 L 1.457031 -2.140625 L 2.253906 -2.140625 L 2.253906 -2.003906 C 2.210938 -1.996094 2.152344 -1.972656 2.082031 -1.929688 C 2.011719 -1.886719 1.957031 -1.828125 1.921875 -1.75 C 1.75 -1.351562 1.597656 -0.984375 1.464844 -0.65625 C 1.328125 -0.328125 1.226562 -0.0859375 1.160156 0.0664062 C 1.066406 0.269531 0.984375 0.429688 0.914062 0.542969 C 0.84375 0.65625 0.773438 0.746094 0.707031 0.808594 C 0.640625 0.871094 0.578125 0.910156 0.523438 0.933594 C 0.46875 0.953125 0.414062 0.964844 0.355469 0.964844 C 0.242188 0.964844 0.15625 0.9375 0.0898438 0.882812 C 0.0273438 0.828125 -0.0078125 0.769531 -0.0078125 0.699219 Z "/>
</g>
<g id="glyph-0-2">
<path d="M 1.476562 -0.09375 C 1.382812 -0.0546875 1.292969 -0.0195312 1.210938 0.00390625 C 1.125 0.03125 1.023438 0.046875 0.902344 0.046875 C 0.722656 0.046875 0.597656 0 0.523438 -0.0898438 C 0.449219 -0.179688 0.414062 -0.308594 0.414062 -0.472656 L 0.414062 -1.921875 L 0.0273438 -1.921875 L 0.0273438 -2.132812 L 0.421875 -2.132812 L 0.421875 -2.796875 L 0.816406 -2.796875 L 0.816406 -2.132812 L 1.433594 -2.132812 L 1.433594 -1.921875 L 0.824219 -1.921875 L 0.824219 -0.726562 C 0.824219 -0.636719 0.824219 -0.5625 0.832031 -0.503906 C 0.839844 -0.441406 0.855469 -0.390625 0.878906 -0.34375 C 0.902344 -0.304688 0.9375 -0.269531 0.984375 -0.25 C 1.027344 -0.226562 1.089844 -0.21875 1.167969 -0.21875 C 1.207031 -0.21875 1.257812 -0.21875 1.328125 -0.226562 C 1.398438 -0.234375 1.449219 -0.242188 1.476562 -0.25 Z "/>
</g>
<g id="glyph-0-3">
<path d="M 2.058594 -0.503906 C 1.96875 -0.332031 1.847656 -0.195312 1.695312 -0.09375 C 1.546875 0.00390625 1.375 0.0546875 1.179688 0.0546875 C 1.007812 0.0546875 0.855469 0.0273438 0.726562 -0.0351562 C 0.597656 -0.09375 0.488281 -0.179688 0.40625 -0.28125 C 0.320312 -0.386719 0.257812 -0.507812 0.21875 -0.648438 C 0.175781 -0.785156 0.15625 -0.933594 0.15625 -1.085938 C 0.15625 -1.226562 0.179688 -1.363281 0.222656 -1.496094 C 0.265625 -1.628906 0.332031 -1.75 0.417969 -1.859375 C 0.5 -1.960938 0.601562 -2.042969 0.722656 -2.105469 C 0.847656 -2.167969 0.984375 -2.199219 1.136719 -2.199219 C 1.292969 -2.199219 1.425781 -2.175781 1.535156 -2.125 C 1.648438 -2.078125 1.738281 -2.011719 1.808594 -1.925781 C 1.875 -1.84375 1.921875 -1.75 1.957031 -1.636719 C 1.988281 -1.527344 2.003906 -1.410156 2.003906 -1.28125 L 2.003906 -1.136719 L 0.589844 -1.136719 C 0.589844 -0.996094 0.601562 -0.867188 0.628906 -0.753906 C 0.65625 -0.640625 0.699219 -0.539062 0.753906 -0.453125 C 0.8125 -0.367188 0.886719 -0.300781 0.976562 -0.253906 C 1.066406 -0.203125 1.175781 -0.179688 1.300781 -0.179688 C 1.429688 -0.179688 1.542969 -0.210938 1.636719 -0.269531 C 1.726562 -0.332031 1.820312 -0.441406 1.90625 -0.597656 L 2.058594 -0.503906 M 1.578125 -1.320312 C 1.578125 -1.398438 1.570312 -1.488281 1.558594 -1.578125 C 1.542969 -1.671875 1.519531 -1.75 1.492188 -1.808594 C 1.457031 -1.875 1.410156 -1.929688 1.355469 -1.972656 C 1.296875 -2.015625 1.222656 -2.035156 1.128906 -2.035156 C 0.980469 -2.035156 0.851562 -1.972656 0.75 -1.847656 C 0.652344 -1.71875 0.597656 -1.542969 0.589844 -1.320312 Z "/>
</g>
</g>
</defs>
<g fill="rgb(91.372549%, 27.058824%, 37.647059%)" fill-opacity="1">
<use xlink:href="#glyph-0-0" x="30" y="24.074219"/>
<use xlink:href="#glyph-0-1" x="32" y="24.074219"/>
<use xlink:href="#glyph-0-2" x="34" y="24.074219"/>
<use xlink:href="#glyph-0-3" x="36" y="24.074219"/>
</g>
</svg>
